<svg xmlns="http://www.w3.org/2000/svg" width="63" height="58" viewBox="0 0 63 58" fill="none">
  <g clip-path="url(#clip0_283_1169)">
    <path d="M60.3757 31.9141L59.6336 32.0227C59.6019 31.5837 59.5476 31.1539 59.4798 30.7195L61.0816 30.2217C61.5793 30.0679 61.8644 29.5294 61.706 29.0317C61.5522 28.534 61.0137 28.2489 60.516 28.4073L59.0861 28.8552C58.982 28.4751 58.8644 28.0951 58.7332 27.7195L60.1856 27C60.6562 26.7693 60.8463 26.1946 60.6155 25.724C60.3847 25.2534 59.8101 25.0634 59.3395 25.2941L58.0001 25.9548C55.4209 20.4706 50.0363 15.9729 43.1223 13.3937C39.5974 10.2308 32.6879 4.17197 27.9232 0.941203C26.2309 -0.208119 23.9141 0.791881 23.5793 2.81451C23.077 5.81903 22.792 8.26699 22.6789 10.2579C17.4798 8.46609 9.53406 5.8688 4.14492 4.76021C1.95035 4.30319 0.0272706 6.28962 0.534058 8.47966C3.11324 19.5747 5.51143 23.0996 7.47523 23.4978C6.21732 26.448 5.60193 29.7647 5.60193 33.2715C5.60193 45.5702 13.1132 52.2308 29.6834 52.2308C46.2535 52.2308 59.2037 45.8326 59.6653 33.9412L60.6562 33.7964C61.1721 33.7195 61.5341 33.2353 61.4571 32.715C61.3802 32.1946 60.896 31.8371 60.3757 31.9141Z" fill="#3B3634"/>
    <path d="M60.4617 32.5114L60.4979 32.543C60.5205 32.5114 60.5567 32.4797 60.5929 32.4571C60.5431 32.4661 60.4979 32.4842 60.4617 32.5114Z" fill="#1B1B1B"/>
    <path d="M61.0679 32.8371C61.0814 32.8099 61.1131 32.819 61.1267 32.7873C61.0181 32.5927 60.8145 32.5158 60.6697 32.543C60.6968 32.6425 60.7783 32.6154 60.8914 32.6425C61 32.6606 61.1176 32.7466 61.0679 32.8326V32.8371Z" fill="#1B1B1B"/>
    <path d="M61.0225 32.9864C60.9094 33.1448 60.9275 33.2669 60.9094 33.3439C60.9094 33.2805 60.9909 33.2126 61.0361 33.1312C61.0814 33.0497 61.0949 32.9773 61.0225 32.9864Z" fill="#1B1B1B"/>
    <path d="M38.4026 51.2036C38.4343 51.1991 38.4795 51.1855 38.5112 51.1765C38.4524 51.181 38.4207 51.1946 38.4026 51.2036Z" fill="#1B1B1B"/>
    <path d="M30.1265 52.2896L30.0406 52.3891C31.6017 52.2081 33.3709 52.3031 35.0179 52.0769L34.9093 52.1221C39.0949 51.7692 42.9139 50.8506 46.751 49.2805C46.6967 49.3122 46.6831 49.3484 46.6288 49.3846C46.8007 49.2805 46.9863 49.1402 47.1989 49.0633C47.2623 49.0633 47.1582 49.1312 47.0949 49.1629C47.5338 49.0814 48.1175 48.7918 48.6514 48.5158C49.1808 48.2262 49.6695 47.9502 49.9365 47.8687C50.1446 47.7375 50.208 47.6244 50.0632 47.6425C51.4704 46.8506 52.8596 45.9049 54.0994 44.7828C55.3302 43.6561 56.4026 42.3484 57.1944 40.9366C57.2985 40.819 57.3528 40.8144 57.3799 40.8823C57.9817 39.6199 58.4885 38.3031 58.8234 36.9276C58.8912 36.5792 58.9863 36.2353 59.0451 35.8868C59.0949 35.5339 59.1673 35.1855 59.1989 34.8325L59.2532 34.2172L59.2894 33.7737L59.2985 33.6651C59.2985 33.6289 59.2985 33.5837 59.3437 33.5927L59.5655 33.5611L60.3166 33.457L60.5881 33.4208C60.6559 33.4117 60.7012 33.4027 60.7555 33.3801C60.7781 33.2986 60.5881 33.362 60.6922 33.2443C60.6424 33.2534 60.3664 33.2805 60.1582 33.3258C59.9817 33.3574 59.8053 33.3936 59.6333 33.4253L59.3618 33.4796L59.2306 33.5068C59.1944 33.5203 59.217 33.5927 59.208 33.6335C59.1989 33.9547 59.1899 34.2715 59.1808 34.5882C59.1718 34.7873 59.1537 34.9909 59.0858 35.1855L59.0315 35.0724C58.9048 35.6516 59.1854 35.2126 59.0089 35.8144C58.9184 36.0452 58.932 35.7421 58.9093 35.8506C58.7238 37.104 58.2713 38.3303 57.9184 39.4796C57.7917 39.5837 57.6514 39.8914 57.4704 40.2036C57.3845 40.362 57.294 40.5249 57.208 40.6696C57.1084 40.8099 57.0134 40.9276 56.9184 41.009C56.7917 41.3167 56.6062 41.5837 56.6062 41.7375C53.9591 45.3348 49.9003 47.8959 45.5338 49.4163C43.57 50.4253 40.9365 50.7239 38.4116 51.2307C38.3935 51.2217 38.3935 51.2126 38.4116 51.1991C37.9998 51.2941 37.4931 51.3982 36.9591 51.4841C36.4252 51.5565 35.8686 51.6289 35.3664 51.6606L34.5247 51.8597C31.4885 51.9819 28.4161 51.9819 25.3528 51.7466C22.2985 51.4841 19.2261 50.9592 16.4026 49.7918C13.1854 48.5113 10.5383 46.4434 8.81432 43.7828C7.94554 42.457 7.30753 40.9909 6.8279 39.4525C6.36636 37.9049 6.07224 36.285 5.89577 34.5927C5.92292 34.6018 5.93649 34.543 5.95912 34.7194C5.79622 32.7647 5.99532 30.9773 6.20799 29.1538L6.23514 29.1629C6.33016 28.2217 6.49305 27.2669 6.74192 26.3303C6.86862 25.8597 7.00437 25.3936 7.16274 24.9321C7.23966 24.7013 7.32563 24.4706 7.4116 24.2443C7.5021 23.9864 7.67405 23.638 7.7555 23.362C7.52925 23.2896 7.29848 23.2398 7.08129 23.1357L6.84599 23.0181L6.6469 22.8778C6.51115 22.7918 6.38446 22.6787 6.26681 22.5611C6.14011 22.4525 6.02699 22.3303 5.91839 22.1991C5.47043 21.7013 5.10391 21.1176 4.76907 20.5339C4.10391 19.3529 3.56093 18.1176 3.04961 16.923C2.14464 14.371 1.38898 11.5837 0.705723 8.74205C0.606176 8.38458 0.556402 8.04069 0.556402 7.6787C0.579027 7.32576 0.642375 6.96829 0.778122 6.63798C1.04961 5.97734 1.56093 5.41173 2.19894 5.08594C2.83695 4.75562 3.5926 4.66965 4.29396 4.83707C5.00889 4.97734 5.71477 5.13571 6.41161 5.29409L6.38446 5.34386C10.8731 6.33481 15.0179 7.96829 19.3935 9.31218C19.9274 9.50675 20.4614 9.69228 21.0044 9.8778C21.6198 10.0814 22.2397 10.2896 22.8596 10.4932C22.8867 9.95924 22.9184 9.42531 22.9455 8.89137C22.9772 8.43436 23.0089 7.97734 23.0406 7.5158C23.113 6.59725 23.2035 5.6787 23.3121 4.76467L23.4931 3.39363C23.5609 2.94114 23.6062 2.47508 23.8053 2.05427C24.1854 1.20811 25.0315 0.606302 25.9274 0.50223C26.6605 0.456981 27.4342 0.647026 28.0813 1.14024C28.7645 1.59273 29.4659 2.06332 30.1627 2.52485C31.5564 3.46603 32.9003 4.43888 33.8822 5.42078C35.9455 7.38006 38.0406 9.22169 40.1763 11.0226L41.7826 12.371L42.5881 13.0407L42.9908 13.3755C43.0315 13.4027 43.0632 13.4434 43.1084 13.466L43.2442 13.5158L43.4931 13.6018C44.8234 14.0452 46.1265 14.5837 47.4116 15.1991C48.5519 15.8506 49.6605 16.5565 50.7238 17.3212C51.7917 18.0769 52.8143 18.9004 53.751 19.8054C54.6876 20.7104 55.57 21.6787 56.3121 22.742C56.6786 23.276 57.036 23.8144 57.3302 24.3846C57.484 24.6651 57.6379 24.9502 57.7645 25.2443L57.941 25.6425L58.0315 25.8461C58.0315 25.8461 58.036 25.8687 58.0451 25.8687L58.0677 25.8597L58.113 25.8416L58.208 25.8009L58.5745 25.5882C58.7102 25.5158 58.8415 25.4434 58.9772 25.371C59.1175 25.2986 59.2397 25.2307 59.4026 25.1629C59.5654 25.104 59.7419 25.0859 59.9139 25.1131C60.2578 25.1629 60.5655 25.4027 60.6922 25.7194C60.8234 26.0362 60.7736 26.4117 60.5745 26.6696C60.3845 26.9502 60.0451 27.0226 59.7464 27.1583C59.4433 27.285 59.1582 27.4072 58.7736 27.5792L58.6378 27.6425L58.6016 27.6561C58.6016 27.6561 58.6016 27.6787 58.6016 27.6877L58.6198 27.7556L58.6967 28.0407L58.8641 28.6244L58.9501 28.923L58.9727 28.9954C58.9817 29.0226 58.9817 29.0543 59.0134 29.0316L59.1627 28.9864L59.751 28.7963L59.6288 28.7601C59.8912 28.733 60.122 28.6696 60.3664 28.5792C60.4931 28.5339 60.6017 28.4796 60.7057 28.457C60.8188 28.4298 60.9365 28.4253 61.0541 28.4434C61.2894 28.4796 61.5021 28.6154 61.6152 28.8009C61.7329 28.9819 61.7374 29.19 61.6559 29.3258C61.6559 29.2941 61.6424 29.2669 61.6378 29.2353C61.579 29.4525 61.6016 29.7013 61.4795 29.9728C61.3664 30.2443 61.0768 30.4117 60.9184 30.3574L60.8641 30.457C60.2849 30.6606 60.7691 30.3936 60.3075 30.5022C60.1492 30.5611 60.2623 30.6696 59.941 30.7194C59.8912 30.6516 59.7736 30.647 59.6243 30.6787C59.5881 30.6878 59.5473 30.6968 59.5066 30.7058C59.4976 30.7058 59.484 30.7058 59.4795 30.7149V30.7466L59.4885 30.8099C59.5021 30.9004 59.5157 30.9909 59.5293 31.0859C59.5881 31.4615 59.6333 31.7737 59.4704 31.9773C59.4478 31.7692 59.4297 31.9547 59.4026 32.104C59.3754 32.2488 59.3347 32.3801 59.2261 31.8054C59.2261 31.8959 59.2397 32.0678 59.2668 32.2715C59.2713 32.3212 59.2804 32.3755 59.2849 32.4298C59.2849 32.4434 59.2849 32.4615 59.294 32.466H59.3347L59.4161 32.4479C59.5247 32.4298 59.6333 32.4072 59.7374 32.3891C60.1627 32.3077 60.493 32.2126 60.4116 32.1448C60.4433 32.0588 60.5519 31.9638 60.5745 31.8868C60.5835 31.8506 60.5745 31.8144 60.5202 31.7873C60.475 31.7601 60.3483 31.7466 60.2487 31.7285C60.217 31.7737 60.1763 31.819 60.1311 31.8687C59.9863 31.7692 60.0179 31.8235 59.9998 31.7375C59.9365 31.7375 59.855 31.7692 59.8369 31.733C59.8369 31.6742 59.8369 31.6199 59.8415 31.5746C59.8505 31.4796 59.8686 31.4117 59.8912 31.3574C59.9229 31.1583 59.9817 31.1176 60.0134 31.0769C60.0134 31.0769 60.0044 31.0769 59.9998 31.0678C59.9546 31.0181 59.9908 31.0045 60.0179 30.9773C60.0315 30.9683 60.0541 30.9547 60.0722 30.9502L60.1039 30.9411L60.1854 30.9185C60.4071 30.8552 60.6198 30.8144 60.7781 30.7782L60.9184 30.8054C61.0406 30.8325 61.2035 30.742 61.4569 30.552C61.656 30.3755 61.7374 30.2126 61.6876 30.4253C62.1718 30.0316 62.3483 29.2805 62.0406 28.7013C61.7555 28.1131 61.0089 27.7963 60.3799 28.0135C60.0541 28.1176 59.7238 28.2217 59.389 28.3303L59.3573 28.3393C59.3573 28.3393 59.3483 28.3212 59.3437 28.3122L59.3256 28.2534L59.2894 28.1357L59.2532 28.0181C59.2487 27.9819 59.2035 27.9276 59.2623 27.9185C59.2623 27.8959 59.294 27.8642 59.3437 27.8325L59.3845 27.8099L59.484 27.7601C59.5474 27.7239 59.6152 27.6923 59.674 27.6606C59.9139 27.5339 60.0768 27.4298 59.855 27.4434C59.9817 27.4389 60.1537 27.3982 60.3528 27.3348C60.6198 27.2398 60.8958 27.0135 61.0451 26.7013C61.1989 26.3936 61.2216 26.0181 61.1265 25.7194C61.0406 25.4163 60.8505 25.19 60.7057 25.0678C60.7374 25.0724 60.7826 25.0769 60.8596 25.1764C60.6424 24.8416 60.3256 24.6832 60.0541 24.638C59.7781 24.5882 59.5338 24.6425 59.3302 24.733C59.0949 24.8416 59.0179 24.9276 58.8641 24.9954C58.7238 25.0633 58.5202 25.1312 58.3075 25.1493C58.3302 25.1991 58.3166 25.2353 58.2849 25.2579C58.2713 25.2669 58.2487 25.285 58.2306 25.285C58.2216 25.2624 58.2125 25.2398 58.2035 25.2172L58.1899 25.181V25.1629L58.1446 25.0859C58.0903 24.9773 58.0315 24.8687 57.9772 24.7692C57.8596 24.5746 57.7238 24.4208 57.6017 24.3348C57.5836 24.2081 57.6017 24.1493 57.6605 24.1674C56.8007 22.6696 55.6786 21.1176 54.6695 20.0543C53.6831 19.285 52.5428 17.9049 51.5202 17.4706C50.8505 16.9004 49.751 15.9638 48.6243 15.4479L48.7419 15.4796C47.5428 14.7782 45.9863 14.0045 45.0406 13.8054C44.7736 13.3936 44.1944 13.2217 43.6695 12.923C43.6152 12.9095 43.5519 12.8914 43.4885 12.8733C43.475 12.8733 43.4523 12.8597 43.4478 12.8642L43.4523 12.8687C43.4523 12.8687 43.4478 12.8687 43.4433 12.8687C43.4614 12.8914 43.3709 12.819 43.3211 12.7782C43.2623 12.7285 43.1989 12.6832 43.1356 12.6289C42.8867 12.4208 42.6107 12.19 42.3256 11.9547C41.751 11.4706 41.1356 10.9502 40.5745 10.5339C40.4931 10.3031 39.674 9.81897 39.7374 9.63798C36.5654 7.33481 32.9727 4.14476 29.7374 1.47056L29.7917 1.4977C29.2985 1.25336 28.6605 1.06784 28.1356 0.855171C28.0994 0.809922 28.122 0.791822 28.217 0.855171C28.0496 0.746574 27.8822 0.642501 27.7193 0.533904C27.5383 0.443406 27.3664 0.339334 27.1718 0.275985C26.7962 0.131189 26.3709 0.0587908 25.9501 0.140239C25.9501 0.108565 25.9501 0.108565 26.0903 0.0678406C25.6922 0.135714 25.2804 0.217162 24.8777 0.398157C24.4795 0.574628 24.0813 0.859696 23.8369 1.28051L23.7691 1.29408L23.6198 1.56558L23.5021 1.85065C23.4614 1.81445 23.3845 1.74657 23.5745 1.46603C23.3528 1.8235 23.1808 2.21264 23.1039 2.62893C23.0315 3.00449 22.9817 3.34386 22.9229 3.70585C22.8143 4.41626 22.7102 5.13119 22.6243 5.85065C22.5338 6.5701 22.4569 7.29409 22.398 8.02259L22.3166 9.11761L22.2985 9.38911V9.47056V9.65155C20.6921 9.14929 19.0722 8.6425 17.4523 8.14024C15.6469 7.5882 13.8369 7.03617 12.0315 6.48413L12.2849 6.50223L11.0089 6.23074C11.0225 6.20359 11.0858 6.20811 11.1492 6.21264C9.58355 5.65608 7.88219 5.35743 6.31658 4.95472C6.33016 4.92757 6.58355 4.93209 6.37088 4.84612C5.76907 4.7873 5.31206 4.61988 4.92292 4.51128C4.53378 4.39816 4.20799 4.30766 3.85052 4.43436C3.7917 4.41173 3.7555 4.33028 3.89124 4.32576C3.42518 4.29409 2.95459 4.34386 2.51115 4.49318C2.07224 4.64703 1.665 4.88685 1.32111 5.19454C0.619751 5.8054 0.207986 6.71038 0.167262 7.63345C0.153687 8.09499 0.253235 8.56558 0.357307 8.95924L0.6469 10.19C0.85052 11.009 1.05414 11.828 1.25776 12.6425C1.77812 13.9502 2.20799 15.362 2.70572 16.7692C3.21251 18.1719 3.78265 19.5837 4.60165 20.7963L4.54283 20.8144C4.91839 21.3665 5.28943 21.9276 5.76002 22.4163C5.86862 22.5475 5.99532 22.6606 6.12654 22.7737L6.31658 22.9457L6.52925 23.0905C6.665 23.1945 6.82337 23.2805 6.96817 23.3484C7.10391 23.4298 7.26681 23.457 7.41613 23.5068C7.24871 24.0045 6.97269 24.6244 6.78265 25.2126C6.57903 25.8099 6.39803 26.4208 6.23966 27.0316C5.92744 28.2624 5.71477 29.5203 5.61975 30.7782C5.4659 32.3891 5.53378 33.4887 5.6288 35.104L5.5564 35.1493C5.78717 36.5022 5.93197 37.9276 6.24871 39.3484C6.56093 40.7647 7.06771 42.19 7.92744 43.3484L7.7374 43.2307C7.92292 43.3801 8.12201 43.7647 8.32111 44.0633C8.52473 44.3574 8.69215 44.5792 8.7555 44.4344C8.82337 44.5882 8.90482 44.742 8.99079 44.8868C9.71025 45.552 10.2849 46.1945 10.9365 46.8642C11.5836 47.5339 12.3573 48.181 13.4297 48.6923L13.2623 48.6651C13.8234 48.9547 14.4931 49.2534 14.8867 49.5113C14.8188 49.4887 14.8369 49.5249 14.6967 49.4706C16.3799 50.5701 18.6017 51 20.6243 51.4163L20.3664 51.4841C21.3754 51.5837 23.1808 51.9864 24.5112 52.0497L24.4252 52.095L25.0994 52.0814L25.1084 52.1945C26.8279 52.3484 28.4569 52.2986 30.1356 52.276L30.1265 52.2896Z" fill="#1B1B1B"/>
    <path d="M47.0913 49.1674C47.0913 49.1674 47.0775 49.1674 47.0729 49.1674C47.0269 49.195 47.0499 49.1858 47.0913 49.1674Z" fill="#1B1B1B"/>
    <path d="M60.0686 31.0725C60.0686 31.0725 60.0134 31.0633 60.0134 31.0771C60.0272 31.0771 60.0502 31.0771 60.0686 31.0725Z" fill="#1B1B1B"/>
    <path d="M41.2221 33.4796C40.8239 33.3891 40.7153 32.8824 41.0456 32.6425C42.4619 31.6063 45.4438 29.7873 47.4212 31.1267C50.0909 32.9367 45.7968 33.4887 45.9506 34.1946C46.0863 34.8235 43.9234 34.086 41.2266 33.4796H41.2221Z" fill="#FFCFC7"/>
    <path d="M41.1536 33.7741L41.1582 33.7925L41.1904 33.7511L41.1536 33.7741Z" fill="#F25454"/>
    <path d="M41.3166 33.7013C41.3166 33.7013 41.3166 33.6787 41.3166 33.6696L41.208 33.7828C41.2261 33.8642 41.303 33.647 41.3166 33.7013Z" fill="#F25454"/>
    <path d="M41.3352 33.7194C41.3578 33.7556 41.385 33.6968 41.3986 33.6787C41.3759 33.724 41.3443 33.6516 41.3352 33.7194Z" fill="#F25454"/>
    <path d="M44.8917 34.3122L44.9098 34.2625C44.756 34.3258 44.6202 34.2036 44.4709 34.2082L44.4845 34.1946C44.127 34.095 43.7741 34.095 43.403 34.0408C43.4121 34.0408 43.4166 34.0227 43.4211 34.0181C43.3985 34.0317 43.3714 34.0588 43.3533 34.0498C43.3533 34.0362 43.3623 34.0272 43.3714 34.0272C43.3171 33.9276 43.1361 34.0272 43.1044 33.9503C43.0818 33.9503 43.0637 33.9864 43.0682 34.0136C42.7831 33.9638 42.48 33.905 42.1768 33.9005C42.1677 33.8869 42.1677 33.8643 42.1768 33.8371C41.9008 33.9095 41.6564 33.7964 41.4121 33.7195C41.394 33.7512 41.4302 33.7602 41.3985 33.7919C41.4709 33.8552 41.5659 33.7421 41.6247 33.819L41.6066 33.8507C41.6564 33.8824 41.6383 33.7693 41.6836 33.8236C41.6971 33.8552 41.67 33.8643 41.679 33.8688C41.7967 33.8824 41.9053 33.9412 42.032 33.8824C42.041 33.9593 42.1542 33.9141 42.1768 33.991C42.213 33.9684 42.2401 33.9819 42.2628 33.9412C42.6474 34.0769 43.0682 34.1086 43.4709 34.2127C43.6926 34.1222 43.8827 34.3439 44.118 34.3484C44.118 34.353 44.118 34.3575 44.118 34.362C44.1994 34.3439 44.3125 34.353 44.394 34.3892L44.48 34.3484C44.7333 34.4661 45.0048 34.534 45.2854 34.5656C45.4302 34.5792 45.5705 34.5928 45.7333 34.5747C45.8148 34.5611 45.9143 34.5521 46.0184 34.457C46.0727 34.4118 46.1044 34.3303 46.1089 34.267C46.1134 34.2082 46.0999 34.1267 46.1089 34.1493C46.0999 34.1493 46.213 34.0408 46.3306 33.991C46.4483 33.9276 46.5795 33.8733 46.7062 33.81C46.9641 33.6878 47.222 33.543 47.4483 33.3077C47.4528 33.3213 47.4619 33.3258 47.4483 33.3394C47.5931 33.2263 47.7605 33.1855 47.8872 33.0543L47.8962 33.0679C48.032 32.8914 48.2085 32.7421 48.3171 32.5204C48.4302 32.2987 48.3895 32.0046 48.2266 31.8598C47.9777 31.4163 47.4935 31.0996 47.0229 30.896L47.0365 30.8688C46.6383 30.7693 46.2763 30.5249 45.8465 30.5656C45.4076 30.5023 44.9913 30.7738 44.575 30.8055C44.2763 30.7376 44.0456 31.1267 43.7741 31.086C43.222 31.0679 42.8193 31.4208 42.4528 31.7828C42.0094 31.9503 41.7288 32.3665 41.2718 32.4932C41.2175 32.5973 41.1044 32.6335 40.9913 32.6742C40.8781 32.715 40.7605 32.8326 40.765 32.9774H40.8012C40.7424 33.0136 40.7831 33.0724 40.8238 33.1131C40.8646 33.1539 40.8962 33.172 40.8374 33.2308H40.8284C40.7786 33.3168 41.041 33.2217 40.9777 33.2896L41.0139 33.267C41.0501 33.2941 40.9822 33.3032 41.0003 33.3394C41.0139 33.3439 41.0546 33.2896 41.0591 33.3258C40.9686 33.4661 41.1768 33.3575 41.1044 33.5204C41.0682 33.5023 41.1361 33.6109 41.0365 33.6109C41.0501 33.6471 41.1813 33.6697 41.1858 33.5883C41.213 33.5113 41.2582 33.448 41.222 33.3711L41.1994 33.4254C41.1994 33.362 41.1994 33.3937 41.1994 33.3484C41.1496 33.3213 41.1813 33.2398 41.1813 33.1946C41.1813 33.1946 41.1813 33.1946 41.1813 33.1991C41.1225 33.2489 41.127 33.1901 41.127 33.1765L41.1496 33.1493C41.1994 33.1041 41.0139 33.1946 41.118 33.1358C41.0456 33.0905 41.032 32.9729 41.0727 32.8914C41.0365 32.8598 41.1134 32.8326 41.032 32.7964C41.1315 32.8281 41.1813 32.8236 41.2356 32.7828C41.2356 32.7919 41.2447 32.8009 41.2356 32.8009C41.3804 32.8552 41.2492 32.6426 41.4076 32.724C41.3533 32.6245 41.5478 32.6697 41.5116 32.534C41.5343 32.5475 41.5478 32.5656 41.5569 32.5837C41.679 32.5023 41.8374 32.4435 41.946 32.3846C41.9822 32.2444 42.1858 32.2851 42.1904 32.1222C42.2718 32.1086 42.403 32.095 42.4664 31.991V32.0091C42.5659 31.9412 42.6926 31.8643 42.7198 31.7512C42.8148 31.8507 42.8465 31.8009 42.9098 31.8145C42.9505 31.724 43.1044 31.6697 43.1858 31.5656C43.2266 31.6109 43.2628 31.4978 43.308 31.5747C43.5433 31.2806 43.9641 31.1629 44.3397 31.1855V31.1946C44.3668 31.1358 44.3849 31.0181 44.4166 30.9412C44.4211 30.9457 44.4257 30.9593 44.4166 30.9638C44.4754 30.9276 44.5569 30.9955 44.6157 30.9638C44.6157 30.9638 44.6157 30.9744 44.6157 30.9955C44.6655 30.9412 44.756 31.0317 44.8103 30.9503L44.8193 30.9729L44.8555 30.9322C44.86 30.9593 44.8691 31.0046 44.8419 31C45.3759 30.9095 45.9505 30.7195 46.5071 30.8779L46.48 30.9005C46.5207 30.8914 46.5614 30.8824 46.5976 30.8779C46.5931 30.8914 46.5886 30.896 46.5795 30.9005C46.6926 30.9955 46.8555 30.9638 46.9777 31.0272C46.9732 31.0407 46.9415 31.0543 46.9505 31.0769C47.0727 31.0543 47.0365 31.2444 47.1587 31.1267C47.1587 31.1358 47.1451 31.1674 47.127 31.1765C47.3985 31.2534 47.6428 31.4525 47.8148 31.6607C47.9505 31.6923 48.032 31.7874 48.0908 31.8914C48.1451 32 48.1858 32.0996 48.2356 32.2217H48.2039C48.2537 32.3756 48.1677 32.5475 48.0456 32.6607C47.9234 32.7783 47.7741 32.8643 47.6383 32.9684C47.5162 33.0362 47.4483 33.1131 47.3261 33.1855L47.3035 33.1539C47.1542 33.3937 46.7967 33.2715 46.6383 33.5204V33.4661C46.6293 33.5521 46.48 33.5113 46.5569 33.6245L46.4981 33.6109C46.4347 33.8462 46.1768 33.6878 46.0727 33.9141L46.0637 33.8824C46.0365 33.9367 46.0048 33.9955 45.9596 34.0136C45.9596 34.0045 45.9505 34.0046 45.9505 33.9865C45.8962 34.0046 45.8555 34.0543 45.8419 34.1177C45.8329 34.1991 45.8555 34.2263 45.8555 34.2489C45.8781 34.3032 45.7922 34.3846 45.7017 34.3892L45.7107 34.3258C45.6383 34.4118 45.4709 34.3439 45.3578 34.362L45.3668 34.3349L45.3035 34.3665V34.3122C45.1587 34.2941 45.0139 34.3122 44.8646 34.2941L44.8917 34.3122Z" fill="#F25454"/>
    <path d="M8.45728 13.8507C8.45728 13.8507 15.1315 10.6742 17.9822 14.819L8.45728 13.8507Z" fill="white"/>
    <path d="M18.4801 14.4751L18.5027 14.4525L18.4167 14.4932L18.4801 14.4751Z" fill="white"/>
    <path d="M18.2531 14.5204C18.2531 14.5204 18.2169 14.5475 18.2034 14.5611L18.4568 14.448C18.5654 14.3394 18.1807 14.5928 18.2531 14.5204Z" fill="white"/>
    <path d="M18.2672 14.4932C18.3034 14.4389 18.1993 14.5068 18.1631 14.5294C18.2445 14.4796 18.1631 14.5792 18.2672 14.4932Z" fill="white"/>
    <path d="M16.9324 13.2762C16.9324 13.2762 16.9373 13.2762 16.9422 13.2762C16.9422 13.2712 16.9422 13.2762 16.9324 13.2762Z" fill="white"/>
    <path d="M16.3213 13.4072L16.2715 13.4932C16.4299 13.371 16.4163 13.5837 16.5249 13.5566L16.5023 13.5837C16.6652 13.7194 16.914 13.7059 17.1403 13.7828C17.1312 13.7918 17.1131 13.8099 17.0996 13.819C17.1312 13.8009 17.181 13.7556 17.181 13.7737C17.1674 13.7918 17.1493 13.8054 17.1403 13.8145C17.0679 13.9728 17.3122 13.828 17.2489 13.9412C17.2715 13.9412 17.3213 13.8914 17.3529 13.8461C17.5158 13.9276 17.6697 14.0452 17.8914 14.095C17.8824 14.1176 17.8462 14.1493 17.8009 14.1855C18.1177 14.1222 18.1312 14.3348 18.1946 14.4887C18.2579 14.4525 18.2443 14.4299 18.3122 14.3982C18.3484 14.3032 18.1131 14.4253 18.19 14.3077L18.2489 14.2715C18.2624 14.2172 18.1086 14.371 18.1538 14.2896C18.19 14.2443 18.2262 14.2398 18.2262 14.2308C18.1584 14.19 18.1584 14.0814 17.9819 14.1403C18.0815 14.0317 17.9321 14.0769 18.0181 13.9638C17.9593 13.9864 17.9593 13.9638 17.8824 14.0226C17.7692 13.7692 17.4661 13.6923 17.2715 13.5158C16.9955 13.6697 17.0905 13.3077 16.9095 13.2986C16.914 13.2896 16.9186 13.2805 16.9276 13.276C16.8462 13.3077 16.7738 13.3032 16.7421 13.2443L16.638 13.3213C16.4796 12.9276 16.0769 12.9366 15.7964 12.7194C15.457 12.5294 15.1448 12.2262 14.7059 12.543C14.7104 12.5158 14.7104 12.4977 14.724 12.4887C14.6109 12.5249 14.5249 12.4072 14.4163 12.457V12.4299C14.1493 12.6335 13.9005 12.3484 13.6516 12.5973C13.3665 12.5656 13.0362 12.5973 12.7466 12.6968V12.638C12.5158 12.7737 12.2489 12.5023 12.0181 12.6289C11.7466 12.5385 11.5701 13.0317 11.2941 12.914C11.0815 12.6742 11.0181 13.3032 10.8145 13.0543C10.4163 12.7013 10.1991 13.0543 10 13.3937C9.68779 13.3258 9.56562 13.7918 9.21267 13.5882C9.16743 13.8235 8.87331 13.448 8.76471 13.5566L8.79638 13.6199C8.66516 13.4434 8.80996 13.9366 8.65611 13.6561V13.6425C8.56561 13.5068 8.74661 14.0181 8.65611 13.8461L8.68326 13.9185C8.66516 13.9502 8.64254 13.8371 8.60634 13.819C8.60634 13.8326 8.66064 13.9547 8.62444 13.9185C8.48869 13.6199 8.58371 14.0136 8.42987 13.6832C8.44797 13.6742 8.3439 13.5656 8.34842 13.4796C8.32127 13.448 8.27602 13.4932 8.34842 13.629C8.41629 13.7783 8.45702 13.9185 8.54299 14.0226L8.49774 13.9095C8.55657 14.0136 8.52942 13.9593 8.57014 14.0407C8.61539 14.0407 8.69231 14.1946 8.74661 14.2489C8.74661 14.2489 8.74661 14.2443 8.74209 14.2353C8.70136 14.095 8.76019 14.1629 8.78281 14.1765L8.81448 14.2353C8.87783 14.362 8.74661 13.9638 8.83258 14.19C8.88688 14.1041 8.97738 14.0679 9.06335 14.0317C9.04073 13.9412 9.13575 14.0136 9.04978 13.8552C9.1448 14.0317 9.23077 14.0543 9.24887 14.0362C9.2534 14.0543 9.26245 14.0724 9.2534 14.0679C9.39367 14.2941 9.22172 13.8235 9.38009 14.1041C9.3077 13.8914 9.48417 14.1403 9.41629 13.8823C9.43892 13.9276 9.45702 13.9683 9.46607 14.009C9.54752 13.9864 9.66064 14.0317 9.73304 14.0136C9.72851 13.8054 9.90046 14.0498 9.86426 13.7783C9.92308 13.819 10.0272 13.905 10.0498 13.7783V13.8099C10.1131 13.7737 10.19 13.733 10.19 13.5566C10.2851 13.8009 10.2986 13.7421 10.3529 13.8145C10.362 13.6878 10.4615 13.6923 10.4977 13.5701C10.5385 13.6832 10.5385 13.5068 10.5882 13.6742C10.6878 13.2986 10.9638 13.3484 11.2217 13.552V13.5656C11.2262 13.4661 11.2127 13.2534 11.2127 13.1267C11.2172 13.1403 11.2262 13.1674 11.2172 13.1674C11.2489 13.1267 11.3213 13.2896 11.3529 13.2489C11.356 13.267 11.3575 13.2866 11.3575 13.3077C11.3756 13.2217 11.457 13.4299 11.4751 13.2851L11.4887 13.3303L11.5023 13.2624C11.5113 13.3213 11.5294 13.4027 11.5113 13.3891C11.8371 13.3846 12.1267 13.0317 12.4751 13.0362V13.0905L12.5249 12.9864C12.5249 13.0136 12.5249 13.0317 12.5249 13.0452C12.6154 13.1357 12.6878 12.9638 12.7738 12.9819C12.7738 13.009 12.7692 13.0679 12.7828 13.0995C12.8326 12.9366 12.8914 13.2941 12.9005 12.9683C12.9005 12.9819 12.9095 13.0543 12.905 13.0814C13.0634 12.9638 13.2398 12.9593 13.4072 13.0136C13.5475 12.7194 13.7059 12.9819 13.8597 12.7602V12.819C14.0634 12.6199 14.2534 12.8642 14.4525 12.8461C14.5294 12.8778 14.5973 12.8235 14.6787 12.8326L14.6697 12.905C14.8643 12.6516 14.905 13.2036 15.1131 12.9412L15.0815 13.0362C15.1403 12.8914 15.1538 13.1086 15.2127 12.8507V12.9366C15.4118 12.6199 15.3484 13.1448 15.5294 12.9638L15.5023 13.0226C15.5475 12.9864 15.5973 12.9593 15.6018 13.0226C15.5973 13.0317 15.5928 13.0498 15.5792 13.0633C15.5928 13.3258 15.7873 13.1176 15.8869 13.1629L15.8326 13.267C15.9321 13.1629 15.9729 13.3077 16.0588 13.2851L16.0317 13.3348L16.095 13.2805L16.0498 13.3801C16.1222 13.4253 16.2398 13.3801 16.3258 13.4027L16.3213 13.4072Z" fill="white"/>
    <path d="M8.76849 14.2712C8.76849 14.2712 8.75517 14.2623 8.75073 14.2534C8.75961 14.2712 8.76405 14.2668 8.76849 14.2712Z" fill="white"/>
    <path d="M11.5383 17.4887C11.5383 17.4887 13.1039 15.3258 15.3573 17.4887H11.5383Z" fill="white"/>
    <path d="M15.7785 17.0498L15.8012 17.0226L15.7288 17.0905L15.7785 17.0498Z" fill="white"/>
    <path d="M15.6018 17.1765C15.6018 17.1765 15.5701 17.2082 15.561 17.2218L15.7647 17.0408C15.8597 16.9231 15.5384 17.2534 15.6063 17.172L15.6018 17.1765Z" fill="white"/>
    <path d="M15.6154 17.1538C15.6516 17.1041 15.5611 17.19 15.5339 17.2217C15.6018 17.1538 15.5249 17.2534 15.6154 17.1538Z" fill="white"/>
    <path d="M14.9727 16.7198C14.9727 16.7198 14.9727 16.7198 14.9825 16.7149C14.9825 16.7149 14.9825 16.7149 14.9727 16.7198Z" fill="white"/>
    <path d="M14.5835 16.9728L14.5292 17.0588C14.6514 16.9231 14.5881 17.0995 14.6559 17.0543L14.6333 17.0814C14.6831 17.1629 14.8505 17.0679 14.9727 17.0633C14.9636 17.0724 14.9455 17.095 14.9365 17.1041C14.9591 17.0769 15.0043 17.0317 15.0043 17.0407C14.9908 17.0588 14.9772 17.0769 14.9681 17.086C14.8822 17.2307 15.0767 17.0407 15.0089 17.1493C15.0224 17.1403 15.0677 17.086 15.0994 17.0407C15.1808 17.0543 15.2623 17.0814 15.4071 17.0362C15.3935 17.0543 15.3663 17.0905 15.3256 17.1312C15.5519 16.9728 15.5383 17.0995 15.5609 17.1765C15.6107 17.1267 15.6062 17.1176 15.6604 17.0679C15.7012 16.9864 15.5111 17.1674 15.5835 17.0588L15.6333 17.009C15.6514 16.9683 15.5157 17.1357 15.5609 17.0588C15.5926 17.0136 15.6197 16.9955 15.6197 16.9909C15.579 16.9909 15.5926 16.9231 15.4614 17.0271C15.5519 16.9095 15.4387 17 15.5247 16.8869C15.4795 16.9276 15.484 16.9095 15.4161 16.9819C15.3799 16.8507 15.208 16.8823 15.122 16.8099C14.9093 17.0136 15.0586 16.7013 14.95 16.7421C14.9546 16.733 14.9636 16.724 14.9681 16.7194C14.9093 16.7647 14.8686 16.7783 14.8686 16.7375L14.7871 16.828C14.8052 16.5294 14.579 16.6108 14.4885 16.457C14.3754 16.3122 14.2623 16.0588 13.9908 16.3755C13.9998 16.3484 13.9998 16.3348 14.0089 16.3212C13.9455 16.362 13.9274 16.2488 13.8686 16.2941V16.2669C13.7193 16.4841 13.6333 16.1991 13.5066 16.4389C13.3844 16.4072 13.2351 16.4389 13.1175 16.5203V16.466C13.0315 16.6063 12.8686 16.3167 12.7781 16.4389C12.6243 16.3574 12.6695 16.8099 12.5157 16.6968C12.3347 16.4751 12.5202 17.0452 12.3392 16.819C12.0134 16.5068 12.0224 16.828 12.0948 17.1086C11.9048 17.0588 12.0858 17.4298 11.7962 17.2715C11.9048 17.4479 11.5383 17.1719 11.5338 17.2624L11.5881 17.3077C11.4116 17.1855 11.7826 17.5384 11.5338 17.3439L11.5247 17.3348C11.3935 17.2398 11.7962 17.6018 11.6469 17.4796L11.7057 17.5294C11.7147 17.552 11.6333 17.4751 11.6062 17.4615C11.6107 17.4706 11.7193 17.552 11.6785 17.5294C11.4206 17.3258 11.7147 17.5973 11.4252 17.3755C11.4297 17.3665 11.303 17.3031 11.2577 17.2353C11.2215 17.2172 11.217 17.2579 11.3437 17.3439C11.4749 17.4434 11.5881 17.5339 11.6966 17.5973L11.6016 17.5249C11.7012 17.5927 11.6514 17.5611 11.7238 17.6108C11.7464 17.6108 11.8822 17.7149 11.9455 17.7556C11.9455 17.7556 11.941 17.7556 11.9365 17.7466C11.8279 17.6516 11.9003 17.6968 11.9184 17.7059L11.9727 17.7466C12.0813 17.8326 11.7736 17.5611 11.9546 17.7149C11.9274 17.6561 11.9546 17.6289 11.9772 17.6018C11.9138 17.5339 11.9998 17.5882 11.8686 17.4706C12.0224 17.6018 12.0767 17.6199 12.0767 17.6063C12.0903 17.6199 12.1039 17.6335 12.0994 17.6289C12.2985 17.8009 11.9455 17.4434 12.1808 17.6561C12.027 17.4932 12.2532 17.6878 12.0767 17.4887C12.1129 17.5249 12.1446 17.5565 12.1718 17.5837C12.1944 17.5656 12.2758 17.6063 12.303 17.5973C12.1899 17.4344 12.398 17.6335 12.2396 17.4117C12.2894 17.4434 12.3799 17.5203 12.3301 17.4208L12.3482 17.4479C12.3573 17.4208 12.3709 17.3936 12.2849 17.2443C12.4433 17.4525 12.4206 17.4027 12.4795 17.466C12.4206 17.3574 12.4659 17.3665 12.4297 17.2624C12.4976 17.362 12.4206 17.2081 12.5157 17.3529C12.3935 17.0362 12.5473 17.0724 12.7238 17.276V17.2896C12.6921 17.1991 12.6152 17.0045 12.57 16.8869C12.579 16.9004 12.5881 16.9276 12.5881 16.9276C12.5881 16.8914 12.674 17.0407 12.674 17.0045C12.6831 17.0226 12.6906 17.0407 12.6966 17.0588C12.6785 16.9819 12.7781 17.1764 12.7374 17.0452L12.7555 17.086L12.7374 17.0226C12.76 17.0769 12.7917 17.1584 12.7826 17.1403C12.9003 17.1584 12.9229 16.8235 13.0677 16.8507V16.905L13.0813 16.8054C13.0813 16.8326 13.0858 16.8461 13.0903 16.8597C13.1356 16.9502 13.1401 16.7828 13.1763 16.8009C13.1763 16.828 13.1808 16.8869 13.1899 16.914C13.1899 16.7511 13.2442 17.1131 13.2215 16.7873C13.2215 16.8009 13.2306 16.8778 13.2306 16.9004C13.2804 16.7918 13.3528 16.7964 13.4116 16.8461C13.4749 16.543 13.5247 16.8235 13.6016 16.5973L13.5926 16.6561C13.6966 16.466 13.7555 16.6878 13.8369 16.6697C13.8641 16.7013 13.9048 16.6425 13.9365 16.647L13.9184 16.7194C14.0586 16.4706 13.9546 16.9955 14.1084 16.7194L14.0722 16.8145C14.1356 16.6697 14.0858 16.8778 14.1763 16.6289L14.1582 16.7059C14.3301 16.3982 14.1672 16.8869 14.303 16.7013L14.2758 16.7556C14.3075 16.7149 14.3392 16.6878 14.3256 16.7466C14.3211 16.7556 14.312 16.7692 14.303 16.7873C14.2351 17.0317 14.3935 16.8009 14.4342 16.8326L14.3754 16.9366C14.4568 16.8235 14.4342 16.9547 14.4885 16.9095L14.4614 16.9547L14.5111 16.8914L14.4568 16.9864C14.484 17.0045 14.5609 16.9457 14.5971 16.9547L14.5835 16.9728Z" fill="white"/>
    <path d="M11.9677 17.769C11.9677 17.769 11.9544 17.7601 11.95 17.7557C11.9677 17.769 11.9633 17.7646 11.9677 17.769Z" fill="white"/>
    <path d="M23.4973 10.724C23.4973 10.724 26.9996 13.4842 27.2756 14.819L23.4973 10.724Z" fill="#3B3634"/>
    <path d="M27.8685 14.6969L27.9002 14.6833L27.8052 14.6969H27.8685Z" fill="#1B1B1B"/>
    <path d="M27.647 14.6832C27.647 14.6832 27.6017 14.6968 27.5881 14.7013L27.8596 14.6742C28.0044 14.6244 27.5519 14.7149 27.647 14.6832Z" fill="#1B1B1B"/>
    <path d="M27.6696 14.6652C27.7285 14.638 27.6018 14.6652 27.561 14.6697C27.6561 14.6516 27.5384 14.7014 27.6696 14.6652Z" fill="#1B1B1B"/>
    <path d="M26.6425 13.819L26.561 13.8778C26.7284 13.8009 26.6153 13.9548 26.7058 13.9412L26.6741 13.9593C26.7149 14.0724 26.9049 14.0679 27.0407 14.1267C27.0316 14.1312 27.0045 14.1448 26.9954 14.1493C27.0271 14.1357 27.0859 14.1041 27.0814 14.1176C27.0633 14.1312 27.0407 14.1403 27.0316 14.1448C26.9049 14.2534 27.1628 14.1493 27.0633 14.2308C27.0814 14.2308 27.1447 14.1946 27.1854 14.1629C27.2669 14.2308 27.3438 14.3077 27.5112 14.3484C27.4931 14.362 27.4524 14.3801 27.3981 14.4027C27.6877 14.371 27.6198 14.5385 27.6108 14.6425C27.6787 14.629 27.6787 14.6109 27.7556 14.6018C27.828 14.543 27.5701 14.5882 27.6832 14.5204L27.7511 14.5023C27.7873 14.4661 27.5882 14.552 27.6606 14.5023C27.7103 14.4751 27.742 14.4751 27.7465 14.4706C27.7058 14.4299 27.7465 14.3529 27.5746 14.3756C27.7058 14.3077 27.5565 14.3303 27.6787 14.2579C27.6198 14.2715 27.6289 14.2579 27.5384 14.2941C27.5384 14.1222 27.3393 14.0498 27.2714 13.9321C26.9954 14.0362 27.2352 13.7783 27.113 13.7647C27.1221 13.7602 27.1311 13.7511 27.1357 13.7466C27.0633 13.7647 27.0135 13.7557 27.0226 13.7149L26.9094 13.7692C26.9999 13.4796 26.7465 13.4344 26.7058 13.2353C26.6289 13.0317 26.6515 12.7557 26.2397 12.8688C26.2624 12.8507 26.2714 12.8371 26.2805 12.8326C26.199 12.8326 26.2397 12.7195 26.1583 12.724L26.1809 12.7059C25.9185 12.7783 26.009 12.4842 25.7375 12.5747C25.647 12.448 25.5022 12.3439 25.3348 12.2851L25.3755 12.2443C25.199 12.2443 25.3121 11.9367 25.1538 11.914C25.1402 11.724 24.7284 11.9683 24.7465 11.7511C24.8687 11.4842 24.3891 11.8643 24.5248 11.5928C24.6922 11.1584 24.3845 11.267 24.0949 11.362C24.0814 11.1448 23.7149 11.362 23.8054 11.0226C23.6244 11.1357 23.8551 10.7376 23.7601 10.733L23.7194 10.7873C23.8325 10.6018 23.4841 10.9819 23.6696 10.724L23.6787 10.7149C23.7692 10.5792 23.4162 10.991 23.5293 10.8371L23.4796 10.8959C23.4524 10.905 23.5339 10.8235 23.5429 10.7919C23.5339 10.7964 23.4524 10.905 23.4705 10.8597C23.6741 10.6018 23.3936 10.8869 23.6198 10.6018C23.6289 10.6063 23.6968 10.4796 23.7601 10.4344C23.7782 10.4027 23.742 10.3982 23.647 10.5204C23.5429 10.6471 23.4434 10.7557 23.38 10.8643L23.4569 10.7738C23.3845 10.8733 23.4207 10.8235 23.371 10.8959C23.38 10.9231 23.2714 11.0588 23.2397 11.1267C23.2397 11.1267 23.2397 11.1222 23.2488 11.1176C23.3483 11.0136 23.3076 11.0905 23.2986 11.1086L23.2578 11.1629C23.1764 11.276 23.4479 10.9638 23.294 11.1493C23.3664 11.1312 23.4072 11.1674 23.4479 11.1991C23.5112 11.1312 23.475 11.2308 23.5746 11.086C23.4569 11.2489 23.4569 11.3122 23.4705 11.3167C23.4569 11.3303 23.4434 11.3484 23.4479 11.3394C23.3031 11.5566 23.6244 11.1765 23.4479 11.4344C23.5927 11.2624 23.4388 11.5204 23.6198 11.3258C23.5927 11.3665 23.561 11.4027 23.5339 11.4299C23.5655 11.4615 23.5565 11.5611 23.5791 11.5928C23.733 11.4615 23.5836 11.7149 23.7827 11.5249C23.7646 11.5837 23.7194 11.6968 23.8189 11.6335L23.7963 11.6561C23.837 11.6697 23.8823 11.6878 24.0135 11.5747C23.8551 11.7783 23.9004 11.7511 23.8597 11.8235C23.9592 11.7466 23.9728 11.81 24.0723 11.7511C23.9999 11.8462 24.1311 11.733 24.018 11.8688C24.3212 11.6833 24.3483 11.8643 24.2624 12.1312L24.2533 12.1403C24.3257 12.0724 24.4841 11.9321 24.5746 11.8507C24.5655 11.8643 24.5474 11.8824 24.5429 11.8824C24.5791 11.8733 24.4796 12.0136 24.5203 12.0045C24.5203 12.0045 24.5067 12.0181 24.4796 12.0453C24.5474 12 24.4162 12.1765 24.5248 12.0905L24.4931 12.1267L24.5474 12.0905C24.5067 12.1312 24.4524 12.1991 24.4569 12.1765C24.5565 12.3394 24.8959 12.2443 25.0045 12.4027L24.9637 12.4389L25.0588 12.3937C25.0588 12.3937 25.0271 12.4253 25.018 12.4344C24.9864 12.5385 25.1311 12.4525 25.1492 12.5023C25.1311 12.5204 25.0859 12.5566 25.0678 12.5837C25.199 12.4932 24.9637 12.7692 25.2035 12.543C25.1945 12.5566 25.1447 12.6109 25.1221 12.6244C25.2624 12.6109 25.3302 12.6833 25.3574 12.7828C25.6198 12.6244 25.4931 12.8778 25.7149 12.7692L25.6741 12.81C25.8959 12.7421 25.8189 12.9729 25.923 13.0226C25.9366 13.0724 26.009 13.0452 26.0407 13.0769L25.9864 13.1267C26.2443 12.991 25.9094 13.4163 26.1945 13.267L26.1176 13.3303C26.2397 13.2353 26.1085 13.4027 26.3031 13.2217L26.2533 13.2851C26.552 13.0905 26.199 13.4661 26.4117 13.3665L26.3619 13.4027C26.4117 13.3846 26.4524 13.3756 26.4162 13.4208C26.4072 13.4208 26.3936 13.4389 26.38 13.4434C26.2262 13.6471 26.475 13.5158 26.5067 13.5656L26.4117 13.6335C26.5339 13.5656 26.4705 13.6878 26.5429 13.6787L26.4977 13.7104L26.5701 13.6742L26.4841 13.7466C26.5067 13.7873 26.6108 13.7647 26.6515 13.7964L26.6425 13.819Z" fill="#1B1B1B"/>
    <path d="M23.2263 11.1633C23.2263 11.1633 23.2309 11.1495 23.2355 11.1402C23.2217 11.1587 23.2263 11.1587 23.2263 11.1633Z" fill="#1B1B1B"/>
    <path d="M27.0178 14.2353C27.0178 14.2353 29.5291 12.5611 32.5201 13.8506L27.0178 14.2353Z" fill="#3B3634"/>
    <path d="M32.7602 13.2987L32.7738 13.2625L32.7285 13.3484L32.7602 13.2987Z" fill="#1B1B1B"/>
    <path d="M32.6335 13.4706C32.6335 13.4706 32.6154 13.5114 32.6108 13.5295L32.7421 13.2942C32.7873 13.1494 32.6018 13.5702 32.6335 13.4706Z" fill="#1B1B1B"/>
    <path d="M32.6338 13.4434C32.6474 13.3801 32.5931 13.4977 32.575 13.5339C32.6157 13.4434 32.584 13.5701 32.6338 13.4434Z" fill="#1B1B1B"/>
    <path d="M31.6829 13.1954C31.6829 13.1954 31.6829 13.1954 31.6878 13.1855C31.6878 13.1855 31.6878 13.1855 31.6829 13.1954Z" fill="#1B1B1B"/>
    <path d="M31.3482 13.552L31.3255 13.6516C31.407 13.4842 31.416 13.6697 31.4794 13.6063L31.4703 13.638C31.5744 13.7059 31.7192 13.5701 31.8595 13.5294C31.8595 13.5385 31.8459 13.5656 31.8414 13.5792C31.8549 13.5475 31.8821 13.4887 31.8866 13.4977C31.8821 13.5204 31.873 13.543 31.8685 13.552C31.8459 13.7195 31.9726 13.4706 31.95 13.5973C31.9635 13.5837 31.9862 13.5158 31.9997 13.4661C32.1038 13.4525 32.2124 13.4661 32.3527 13.3756C32.3527 13.3982 32.3346 13.4434 32.312 13.4932C32.4839 13.2715 32.5382 13.4027 32.6016 13.4751C32.6332 13.4118 32.6197 13.4027 32.6604 13.3394C32.6649 13.2489 32.5427 13.4796 32.5699 13.3529L32.597 13.2896C32.597 13.2398 32.5292 13.448 32.5427 13.3575C32.5563 13.3032 32.5789 13.276 32.5744 13.2715C32.5246 13.2851 32.5065 13.2081 32.4115 13.3529C32.4568 13.2127 32.3708 13.3348 32.4115 13.1946C32.3798 13.2443 32.3753 13.2262 32.3391 13.3213C32.2305 13.1946 32.0495 13.2805 31.9138 13.2398C31.7735 13.4977 31.7871 13.1493 31.683 13.2217C31.683 13.2127 31.6875 13.2036 31.6921 13.1946C31.6513 13.2579 31.6061 13.2805 31.5835 13.2353L31.5292 13.3484C31.4025 13.0634 31.1807 13.2081 31.0133 13.0724C30.8142 12.9729 30.6242 12.7557 30.3979 13.1176C30.3979 13.0905 30.3979 13.0724 30.4025 13.0634C30.3391 13.1222 30.2893 13.0181 30.2305 13.0769V13.0498C30.0948 13.2896 29.9364 13.0136 29.8187 13.2851C29.6604 13.276 29.4794 13.3077 29.3255 13.4072L29.3165 13.3529C29.2034 13.4932 29.0224 13.2081 28.9047 13.3303C28.7373 13.2353 28.7011 13.7059 28.5292 13.5792C28.3663 13.3348 28.4341 13.9367 28.2712 13.6833C27.9771 13.3213 27.9002 13.6425 27.8549 13.9502C27.6513 13.8643 27.6875 14.2896 27.4206 14.0634C27.4522 14.276 27.1762 13.905 27.131 13.9955L27.1672 14.0543C27.0359 13.8824 27.2622 14.3439 27.0857 14.0769V14.0634C26.9862 13.9321 27.2441 14.4072 27.14 14.2489L27.1807 14.3167C27.1807 14.3439 27.131 14.2398 27.1038 14.2217C27.1038 14.2308 27.1762 14.3484 27.1445 14.3122C26.9726 14.0362 27.1445 14.3937 26.95 14.086C26.959 14.0815 26.8595 13.9774 26.8414 13.8959C26.8142 13.8688 26.7916 13.905 26.8776 14.0317C26.9681 14.1719 27.0359 14.2941 27.1219 14.3937L27.0586 14.2896C27.1264 14.3891 27.0948 14.3394 27.1445 14.4118C27.1672 14.4118 27.2667 14.5611 27.3165 14.6154C27.3165 14.6154 27.3165 14.6109 27.3074 14.6063C27.2396 14.4796 27.2984 14.543 27.3165 14.5566L27.3527 14.6109C27.4296 14.7285 27.235 14.362 27.3527 14.5747C27.3572 14.5023 27.407 14.4796 27.4477 14.4525C27.4115 14.3665 27.4839 14.4434 27.3934 14.2896C27.4975 14.4615 27.5563 14.4887 27.5608 14.4751C27.5699 14.4932 27.5789 14.5113 27.5744 14.5068C27.7147 14.7285 27.493 14.276 27.6604 14.552C27.5654 14.3484 27.7328 14.5973 27.6287 14.3529C27.6513 14.3982 27.674 14.4344 27.6921 14.4751C27.7328 14.4615 27.8142 14.5158 27.8504 14.5068C27.7961 14.3122 27.9545 14.5566 27.873 14.2941C27.9183 14.3394 27.9952 14.4299 27.9816 14.3167L27.9907 14.3484C28.0178 14.3213 28.054 14.2896 28.0133 14.1222C28.1174 14.362 28.1129 14.3077 28.1581 14.3801C28.1355 14.2579 28.1943 14.276 28.1898 14.1584C28.235 14.2715 28.2034 14.0996 28.2622 14.2624C28.2441 13.9095 28.416 13.9729 28.5925 14.19V14.2036C28.5789 14.1041 28.5382 13.9005 28.5201 13.7783C28.5246 13.7919 28.5337 13.819 28.5292 13.819C28.5427 13.7828 28.6061 13.9412 28.6151 13.905C28.6212 13.9231 28.6257 13.9412 28.6287 13.9593C28.6287 13.8778 28.7056 14.0815 28.692 13.9457L28.7056 13.991V13.9231C28.7192 13.9774 28.7373 14.0634 28.7282 14.0453C28.9047 14.0588 29.0178 13.7195 29.2124 13.7376V13.7919L29.235 13.6878C29.2396 13.7149 29.2396 13.733 29.2396 13.7421C29.2984 13.8326 29.321 13.6652 29.3663 13.6833C29.3663 13.7104 29.3708 13.7692 29.3798 13.7964C29.3889 13.6335 29.4568 13.991 29.4296 13.6652C29.4296 13.6787 29.4432 13.7511 29.4432 13.7783C29.5156 13.6516 29.6151 13.6606 29.7102 13.7014C29.7644 13.4027 29.8685 13.6606 29.9364 13.4208V13.4796C30.0405 13.2715 30.1581 13.4932 30.2667 13.4525C30.312 13.4751 30.3436 13.4072 30.3889 13.4027V13.4751C30.4794 13.2036 30.5337 13.7376 30.6332 13.4389L30.6197 13.5385C30.6423 13.3846 30.6649 13.5973 30.683 13.3303L30.6921 13.4118C30.7825 13.0679 30.778 13.5792 30.8685 13.362L30.8549 13.4253C30.8776 13.3801 30.9047 13.3394 30.9092 13.4027C30.9092 13.4118 30.9047 13.4299 30.9002 13.448C30.9228 13.7059 31.0178 13.4434 31.0767 13.4615L31.054 13.5747C31.1038 13.4434 31.1355 13.5747 31.1807 13.5249L31.1672 13.5792L31.1988 13.5068L31.1807 13.6154C31.226 13.629 31.2893 13.543 31.3391 13.5385L31.3482 13.552Z" fill="#1B1B1B"/>
    <path d="M27.3393 14.6377C27.3393 14.6377 27.3304 14.6288 27.3215 14.62C27.3348 14.6377 27.3348 14.6333 27.3393 14.6377Z" fill="#1B1B1B"/>
    <path d="M33.0591 39.9276C33.0591 39.9276 34.4075 46.8009 47.05 37.2262C47.05 37.2262 56.0681 35.6923 55.3939 33.2986" fill="#3B3634"/>
    <path d="M54.8102 33.466L54.7786 33.4796L54.8691 33.4706L54.8102 33.466Z" fill="white"/>
    <path d="M55.0319 33.5294C55.0319 33.5294 55.0771 33.5294 55.0907 33.5203C54.9957 33.4977 54.9006 33.4887 54.8147 33.4932C54.6653 33.5294 55.1269 33.4932 55.0319 33.5294Z" fill="white"/>
    <path d="M55.0001 33.552C54.9322 33.5747 55.0589 33.5882 55.0996 33.6018C55.0046 33.5882 55.1358 33.543 55.0001 33.552Z" fill="white"/>
    <path d="M52.0549 35.5893C52.0549 35.5893 52.0647 35.5795 52.0647 35.5746C52.0549 35.5746 52.05 35.5746 52.0549 35.5893Z" fill="white"/>
    <path d="M51.1451 36.3348L51.1632 36.4344C51.308 36.2036 51.5841 36.3077 51.7696 36.1674V36.2036C52.308 36.0679 52.7334 35.733 53.204 35.448C53.204 35.4615 53.2085 35.4887 53.204 35.5023C53.213 35.4615 53.213 35.3891 53.2447 35.3846C53.2628 35.4027 53.2583 35.4299 53.2492 35.4434C53.4257 35.552 53.5117 35.2081 53.6293 35.2896C53.6519 35.2579 53.6293 35.19 53.5931 35.1538C53.9461 34.9321 54.3307 34.6742 54.5479 34.3213C54.575 34.3258 54.6112 34.3575 54.6429 34.4072C54.7198 33.9819 54.9732 33.8462 55.0411 33.6199C54.9687 33.6063 54.9642 33.629 54.8918 33.6018C54.8103 33.6244 55.0275 33.7602 54.8918 33.7783L54.8329 33.7421C54.7696 33.7647 54.9823 33.828 54.8782 33.8326C54.8194 33.8235 54.8058 33.7873 54.7967 33.7919C54.7922 33.8416 54.7424 33.8869 54.7108 33.9412C54.6836 33.9955 54.6565 34.0588 54.6655 34.1629C54.5433 34.0814 54.5524 34.267 54.4121 34.19C54.4212 34.2579 54.3804 34.2715 54.4302 34.3575C53.9642 34.6154 53.4981 35.0045 52.9415 35.2308C52.7877 35.6063 52.3442 35.4118 52.0637 35.6109C52.0592 35.6018 52.0547 35.5928 52.0547 35.5837C51.9732 35.6878 51.8329 35.7738 51.6972 35.7783L51.6293 35.9276C50.7967 35.9366 50.0637 36.3167 49.2492 36.4072C48.8465 36.4706 48.4619 36.4977 48.0863 36.5566C47.9008 36.5837 47.7153 36.6199 47.5298 36.6697C47.4393 36.6968 47.3488 36.724 47.2583 36.7557L47.1225 36.8099L46.9053 36.8869C46.851 36.9457 46.7967 37.009 46.7424 37.0679L46.6519 37.2081C46.6384 37.1855 46.6203 37.1765 46.6338 37.1538C46.4619 37.3529 46.2085 37.4118 46.0456 37.6063L46.0275 37.5837C45.6791 38.1403 44.9823 38.2851 44.6429 38.828C44.3352 39.0136 44.0185 39.2217 43.7017 39.4389C43.3804 39.6471 43.0592 39.8733 42.7515 40.0995L42.7243 40.0498C42.2583 40.4525 41.6022 40.4706 41.1089 40.8145C40.8058 40.8959 40.5524 41.0905 40.2899 41.2941C40.0275 41.4842 39.7515 41.6742 39.4302 41.7014C39.1994 41.6335 39.0185 41.7783 38.8329 41.9231C38.6429 42.0543 38.4483 42.19 38.2356 42.0995C37.4121 41.8416 36.8194 42.2172 36.0185 42.4118C35.6746 42.2986 35.3261 42.2941 34.9732 42.2081C34.6293 42.1222 34.2809 41.9593 34.1089 41.6244C33.9189 41.6018 33.8284 41.4344 33.7696 41.2534C33.7153 41.0724 33.6927 40.8823 33.575 40.7602L33.5207 40.81C33.6384 40.6018 33.118 40.7195 33.3623 40.4977H33.3804C33.4936 40.3801 32.9732 40.5249 33.127 40.4072L33.0501 40.4299C32.9958 40.362 33.1271 40.3846 33.1361 40.3122C33.118 40.2941 32.9958 40.3575 33.023 40.2941C33.3216 40.1765 32.8872 40.1222 33.2402 40.009C33.2492 40.0452 33.3578 39.914 33.4574 39.9728C33.4845 39.9366 33.4438 39.8416 33.2945 39.8914C33.1316 39.914 32.9777 39.8823 32.8691 40L32.9913 39.9909C32.8827 40.0498 32.937 40.0271 32.8556 40.0588C32.8737 40.1765 32.7108 40.2443 32.6746 40.3529C32.6746 40.3529 32.6791 40.3529 32.6881 40.3484C32.842 40.3575 32.7922 40.4615 32.7922 40.5158L32.7379 40.5611C32.6203 40.6471 33.0456 40.5792 32.8103 40.6425C32.9687 40.8461 33.109 41.0905 33.2809 41.3077C33.3759 41.2805 33.4076 41.4751 33.5071 41.3167C33.3895 41.4977 33.5071 41.6878 33.566 41.7376C33.5524 41.7511 33.5343 41.7602 33.5298 41.7466C33.4619 42.0498 33.8239 41.6878 33.7243 42.0226C33.8737 41.8643 33.8963 42.2398 34.1135 42.0724C34.0999 42.1222 34.0818 42.1629 34.0547 42.1946C34.2673 42.3439 34.489 42.543 34.6927 42.638C34.9325 42.5158 35.0999 42.8823 35.3261 42.6425C35.4347 42.724 35.6248 42.8869 35.8194 42.7919L35.7967 42.8235C36.0004 42.8416 36.2492 42.8371 36.385 42.6652C36.4347 42.9276 36.5252 42.8823 36.6112 42.9593C36.7379 42.8281 37.0094 42.8597 37.1904 42.7285C37.2311 42.8461 37.3442 42.6561 37.3759 42.8281C37.8782 42.4344 38.5071 42.3937 39.1361 42.4661V42.4796C39.1723 42.3665 39.1904 42.1357 39.2175 41.9955C39.2311 42.009 39.2356 42.0362 39.2221 42.0407C39.308 41.9774 39.4528 42.1086 39.5433 42.0452C39.5494 42.0633 39.5494 42.083 39.5433 42.1041C39.6067 42 39.7786 42.1674 39.8375 42L39.8601 42.0407L39.9053 41.9547C39.9234 42.009 39.9551 42.0905 39.9099 42.086C40.7696 41.8235 41.4483 41.1448 42.2492 40.7647V40.8281L42.3488 40.6561C42.3623 40.6833 42.3623 40.6968 42.3623 40.7149C42.6022 40.6923 42.7243 40.4389 42.9234 40.3575C42.937 40.3801 42.937 40.448 42.9777 40.457C43.0366 40.2398 43.299 40.5023 43.204 40.181C43.2175 40.19 43.2583 40.2489 43.2583 40.2805C43.5795 39.9593 43.9732 39.733 44.3714 39.5294C44.5162 39.0814 45.0139 39.0814 45.1904 38.6652L45.2221 38.7149C45.5117 38.2624 46.0682 38.1448 46.4528 37.8054C46.6384 37.6968 46.7108 37.5566 46.8827 37.4253L46.9325 37.4796C46.9596 37.3846 47.0049 37.3258 47.0637 37.276C47.3307 37.2262 47.6972 37.4344 47.937 37.1357V37.2398C47.9596 37.0769 48.1678 37.2489 48.0909 36.9909L48.1723 37.0543C48.3488 36.6561 48.661 37.1176 48.9144 36.8235V36.8914C48.9777 36.8235 49.0637 36.7647 49.1361 36.8099C49.127 36.819 49.1361 36.8371 49.1225 36.8597C49.4347 37.0407 49.6519 36.7059 49.9189 36.6471V36.7692C50.0139 36.6018 50.2809 36.6652 50.4347 36.5566V36.6109L50.5026 36.5113L50.5343 36.6199C50.756 36.5656 50.937 36.4163 51.1451 36.3394V36.3348Z" fill="white"/>
    <path d="M32.665 40.3853C32.665 40.3853 32.6696 40.3577 32.6742 40.3439C32.6512 40.3531 32.665 40.3715 32.665 40.3853Z" fill="white"/>
    <path d="M50.6699 36.4027C50.6699 36.4027 50.1586 41.362 42.9006 40.0452L50.6699 36.4027Z" fill="#3B3634"/>
    <path d="M42.7876 40.6426V40.6743L42.8147 40.5838L42.7876 40.6426Z" fill="white"/>
    <path d="M42.9052 40.448C42.9052 40.448 42.9097 40.4027 42.9143 40.3846L42.8192 40.6426C42.8147 40.7964 42.9097 40.3439 42.9052 40.448Z" fill="white"/>
    <path d="M42.9141 40.4751C42.9231 40.5384 42.9503 40.4162 42.9638 40.3755C42.9412 40.4705 42.9367 40.3393 42.9141 40.4751Z" fill="white"/>
    <path d="M44.5118 40.5973C44.5118 40.5973 44.5118 40.5973 44.5068 40.6071C44.5068 40.6071 44.5118 40.6071 44.5118 40.5973Z" fill="white"/>
    <path d="M44.941 40.1855V40.0859C44.8687 40.2624 44.7872 40.0769 44.7058 40.1493L44.7148 40.1131C44.5157 40.0633 44.3211 40.2307 44.1085 40.2896C44.1085 40.276 44.1175 40.2534 44.122 40.2398C44.1085 40.2715 44.0904 40.3348 44.0813 40.3258C44.0813 40.3031 44.0904 40.2805 44.0949 40.2715C44.0677 40.0995 43.9591 40.3574 43.9456 40.2262C43.932 40.2443 43.9184 40.3122 43.9184 40.362C43.7555 40.3846 43.5836 40.3891 43.3981 40.4977C43.3935 40.4751 43.3981 40.4298 43.4071 40.371C43.2306 40.6199 43.0949 40.4932 42.9591 40.4298C42.941 40.4977 42.9591 40.5067 42.9365 40.5746C42.9682 40.6696 43.0496 40.4163 43.0723 40.5475L43.0542 40.6153C43.0768 40.6651 43.0858 40.4479 43.1039 40.5384C43.1039 40.5972 43.0858 40.6244 43.0904 40.6289C43.1582 40.6108 43.2171 40.6787 43.303 40.5248C43.2985 40.6742 43.3709 40.5384 43.3754 40.6832C43.4026 40.6289 43.4162 40.6425 43.4343 40.5475C43.6515 40.6561 43.9003 40.5475 44.1311 40.5882C44.2623 40.3077 44.3664 40.6515 44.5067 40.561C44.5067 40.5701 44.5067 40.5837 44.5067 40.5882C44.5519 40.5203 44.6153 40.4886 44.665 40.5248L44.7103 40.4072C45.0044 40.6651 45.3211 40.5203 45.6334 40.5882C45.9863 40.6289 46.3438 40.8416 46.6243 40.3846C46.6243 40.4117 46.6334 40.4253 46.6243 40.4389C46.7103 40.362 46.8189 40.4479 46.9003 40.371V40.3982C46.9953 40.2579 47.113 40.2488 47.2306 40.2262C47.3438 40.1945 47.4614 40.1583 47.5248 40.0045C47.656 39.9728 47.7917 39.9276 47.923 39.8733C48.0496 39.8009 48.1718 39.7104 48.2804 39.6153L48.3076 39.6651C48.38 39.5611 48.5021 39.5565 48.6243 39.5384C48.742 39.5158 48.8687 39.4977 48.9365 39.3936C49.2261 39.3665 49.113 38.8461 49.3935 38.8235C49.7103 38.923 49.3845 38.3665 49.6877 38.4615C49.9456 38.4977 50.0723 38.4027 50.1085 38.2579C50.1447 38.1086 50.1175 37.9276 50.0587 37.742C50.3211 37.5882 50.0587 37.2081 50.4343 37.0995C50.2714 36.9276 50.7555 36.9457 50.7284 36.7918L50.6605 36.7782C50.8822 36.7782 50.3935 36.6063 50.7103 36.6515L50.7239 36.6606C50.8913 36.6696 50.3664 36.5248 50.5564 36.552L50.4795 36.5339C50.4614 36.5022 50.57 36.5475 50.6062 36.5339C50.5972 36.5248 50.4659 36.5068 50.5112 36.4977C50.8324 36.5475 50.4524 36.4163 50.8144 36.4705C50.8144 36.4886 50.9591 36.457 51.027 36.5158C51.0677 36.5067 51.0587 36.4389 50.9003 36.4298C50.7374 36.4072 50.5972 36.3755 50.4659 36.3891L50.5836 36.4072C50.4614 36.4027 50.5248 36.4072 50.4343 36.3982C50.4162 36.4253 50.2397 36.4072 50.1628 36.4163C50.1628 36.4163 50.1673 36.4163 50.1763 36.4163C50.3166 36.457 50.2261 36.466 50.2035 36.4751L50.1356 36.466C49.9953 36.4434 50.3981 36.5565 50.1628 36.4977C50.2035 36.5791 50.1809 36.6606 50.1628 36.7375C50.2487 36.7737 50.1356 36.7963 50.3076 36.828C50.1085 36.7918 50.0406 36.8325 50.0406 36.8552C50.0225 36.8506 50.0044 36.8416 50.0089 36.8416C49.751 36.8009 50.2216 36.9683 49.9094 36.9004C50.122 36.9819 49.8189 36.9411 50.0587 37.0543C50.0089 37.0407 49.9682 37.0271 49.932 37.009C49.9003 37.0724 49.7963 37.1176 49.7646 37.1674C49.9275 37.2986 49.6334 37.2398 49.8596 37.3982C49.7917 37.4072 49.6605 37.4072 49.7329 37.5022L49.7058 37.4841C49.6922 37.5429 49.6741 37.6153 49.7963 37.7375C49.561 37.6199 49.5926 37.6651 49.5067 37.6425C49.5881 37.7375 49.5157 37.7828 49.57 37.8959C49.4659 37.8371 49.5836 37.9683 49.4388 37.8687C49.6288 38.2081 49.3619 38.3077 49.0723 38.2669L49.0632 38.2579C49.1266 38.3393 49.2442 38.5068 49.3211 38.6108C49.3076 38.6018 49.2895 38.5791 49.294 38.5791C49.294 38.6244 49.1447 38.5248 49.1447 38.5701C49.1447 38.5701 49.1326 38.555 49.1085 38.5248C49.1401 38.6018 48.9637 38.466 49.0315 38.5882L48.9999 38.5565L49.027 38.6199C48.9908 38.5791 48.932 38.5113 48.9546 38.5158C48.7284 38.6696 48.6469 39.0633 48.3709 39.2036L48.3528 39.1493V39.2624C48.3347 39.2353 48.3302 39.2217 48.3257 39.2126C48.2125 39.1583 48.2216 39.3393 48.1401 39.3484C48.1266 39.3212 48.113 39.2669 48.0904 39.2443C48.113 39.4072 47.9229 39.0995 48.0406 39.4027C48.0315 39.3891 47.9999 39.3258 47.9908 39.2986C47.9048 39.466 47.7601 39.5339 47.5926 39.5203C47.57 39.8416 47.3438 39.6334 47.2849 39.9004L47.2668 39.8416C47.1537 40.1086 46.9049 39.9095 46.7374 39.9909C46.656 39.9819 46.6198 40.0588 46.5429 40.0814L46.5293 40.009C46.4433 40.3122 46.2306 39.8144 46.1311 40.1221V40.0226C46.1266 40.1764 46.0406 39.9728 46.0768 40.2353L46.0451 40.1583C45.9818 40.5158 45.8596 40.009 45.7646 40.2443V40.181C45.742 40.2307 45.7058 40.2715 45.6831 40.2172C45.6831 40.2081 45.6831 40.19 45.6877 40.1719C45.5791 39.9276 45.4886 40.2126 45.389 40.2081L45.3981 40.0905C45.3528 40.2353 45.2623 40.1086 45.199 40.1674V40.1131L45.1718 40.19V40.0769C45.0904 40.0678 45.0089 40.1583 44.9275 40.1674L44.941 40.1855Z" fill="white"/>
    <path d="M37.3939 33.1991L37.4165 33.1719L37.3396 33.2308L37.3939 33.1991Z" fill="white"/>
    <path d="M37.1945 33.2987C37.1945 33.2987 37.1674 33.3349 37.1538 33.3484L37.371 33.181C37.4615 33.0588 37.1357 33.3801 37.1945 33.2987Z" fill="white"/>
    <path d="M37.2034 33.2715C37.2351 33.2127 37.1401 33.3032 37.1084 33.3303C37.1808 33.2625 37.1084 33.3711 37.2034 33.2715Z" fill="white"/>
    <path d="M35.9817 32.3848C35.9817 32.3848 35.9866 32.3848 35.9915 32.3848C35.9915 32.3799 35.9915 32.3848 35.9817 32.3848Z" fill="white"/>
    <path d="M35.4341 32.5294L35.3798 32.6154C35.5336 32.4977 35.502 32.7013 35.6015 32.6742L35.5789 32.7013C35.7101 32.8371 35.9454 32.7964 36.149 32.8461C36.14 32.8552 36.1219 32.8733 36.1128 32.8823C36.14 32.8597 36.1898 32.8145 36.1898 32.828C36.1807 32.8461 36.1581 32.8642 36.149 32.8688C36.0812 33.0226 36.3074 32.8507 36.2531 32.9683C36.2712 32.9593 36.321 32.9095 36.3481 32.8642C36.4884 32.9276 36.6287 33.009 36.8323 33.009C36.8232 33.0316 36.7961 33.0678 36.7554 33.1086C37.0314 32.9909 37.0676 33.1629 37.14 33.285C37.1943 33.2353 37.1807 33.2217 37.2395 33.1764C37.2667 33.0814 37.0631 33.2534 37.1174 33.1312L37.1671 33.086C37.1762 33.0362 37.045 33.2081 37.0812 33.1267C37.1083 33.0769 37.14 33.0633 37.14 33.0543C37.0721 33.0362 37.0631 32.9457 36.9137 33.0317C36.9997 32.9095 36.8685 32.9864 36.9409 32.8597C36.8911 32.8959 36.8866 32.8733 36.8187 32.9412C36.7011 32.7421 36.4522 32.7013 36.2712 32.5746C36.0178 32.7511 36.1174 32.4027 35.959 32.4117C35.9635 32.4027 35.968 32.3936 35.9771 32.3891C35.9047 32.4253 35.8413 32.4208 35.8187 32.3665L35.7192 32.4479C35.6241 32.0724 35.2621 32.0995 35.0585 31.8642C34.8097 31.6425 34.5879 31.3529 34.1626 31.5792C34.1717 31.552 34.1762 31.5384 34.1852 31.5294C34.0812 31.543 34.0314 31.4298 33.9318 31.4615L33.9409 31.4344C33.6649 31.6018 33.5155 31.2669 33.2531 31.4706C33.0133 31.4027 32.7373 31.3529 32.4658 31.4027L32.4748 31.3484C32.2576 31.4479 32.0812 31.1131 31.864 31.1991C31.6468 31.0678 31.416 31.5022 31.2033 31.3484C31.054 31.0769 30.9183 31.6832 30.7735 31.4027C30.4748 31 30.235 31.3031 30.0404 31.6108C29.7735 31.4977 29.6468 31.9412 29.3481 31.6923C29.3029 31.9185 29.0585 31.5113 28.9545 31.6108L28.9816 31.6742C28.8685 31.4887 28.9907 31.9864 28.8549 31.6968V31.6832C28.7735 31.5384 28.9364 32.0588 28.8549 31.8823L28.8775 31.9593C28.8594 31.9909 28.8413 31.8778 28.8097 31.8552C28.8097 31.8688 28.8594 31.9909 28.8278 31.9547C28.7056 31.6516 28.7916 32.0452 28.6513 31.7059C28.6694 31.6968 28.5698 31.5837 28.5789 31.4977C28.5517 31.466 28.5065 31.5068 28.5789 31.647C28.6422 31.8009 28.6875 31.9366 28.7644 32.0452L28.7192 31.9321C28.7735 32.0407 28.7508 31.9864 28.787 32.0679C28.8232 32.0679 28.8911 32.2307 28.9409 32.2896C28.9409 32.2896 28.9409 32.285 28.9364 32.276C28.9002 32.1357 28.9499 32.2081 28.968 32.2217L28.9952 32.2805C29.0495 32.4072 28.9318 32.009 29.0088 32.2398C29.0495 32.1583 29.1309 32.1402 29.2033 32.1086C29.1852 32.0181 29.2621 32.0995 29.1943 31.9366C29.2757 32.1221 29.3436 32.1538 29.3617 32.1402C29.3662 32.1583 29.3707 32.181 29.3617 32.1719C29.4748 32.4117 29.3436 31.9276 29.4658 32.2217C29.4115 32.0045 29.5517 32.2715 29.502 32.009C29.5201 32.0543 29.5336 32.0995 29.5427 32.1402C29.6106 32.1267 29.7056 32.19 29.7689 32.1855C29.7735 31.9819 29.9047 32.2443 29.8911 31.9683C29.9409 32.0181 30.0178 32.1176 30.0495 32.0045V32.0362C30.1038 32.009 30.1716 31.9819 30.1807 31.8099C30.2395 32.0633 30.2576 32.009 30.2938 32.086C30.3119 31.9593 30.3934 31.9864 30.4386 31.8688C30.4612 31.9864 30.4793 31.8145 30.5065 31.9864C30.6287 31.6289 30.8594 31.724 31.045 31.9728V31.9864C31.054 31.8823 31.0812 31.6787 31.0947 31.552C31.0947 31.5656 31.0947 31.5973 31.0947 31.5973C31.1264 31.5611 31.1626 31.733 31.1943 31.7013C31.1943 31.7194 31.1943 31.739 31.1943 31.7602C31.2214 31.6787 31.2621 31.8959 31.2938 31.7602V31.8054L31.3164 31.7375C31.3164 31.7964 31.3164 31.8823 31.3074 31.8642C31.5789 31.9276 31.8775 31.6154 32.1671 31.7013L32.1535 31.7556L32.2169 31.6651C32.2169 31.6923 32.2078 31.7059 32.2033 31.7194C32.2621 31.8235 32.3572 31.6697 32.4205 31.7013C32.4205 31.7285 32.3979 31.7828 32.4024 31.8145C32.4748 31.6651 32.4567 32.0271 32.5291 31.7059C32.5291 31.7194 32.5201 31.7964 32.511 31.819C32.6694 31.733 32.8142 31.7737 32.9454 31.8507C33.1264 31.5882 33.2033 31.8642 33.3798 31.6787L33.3662 31.7375C33.5789 31.5882 33.692 31.8507 33.8685 31.8597C33.9273 31.9004 33.9997 31.8507 34.0676 31.8778L34.045 31.9457C34.2576 31.733 34.1852 32.276 34.416 32.0407L34.3707 32.1312C34.4522 31.9955 34.4205 32.2081 34.5201 31.9638L34.5065 32.0452C34.7327 31.7602 34.5879 32.2488 34.778 32.0905L34.7463 32.1448C34.7916 32.1131 34.8368 32.095 34.8323 32.1583C34.8232 32.1629 34.8187 32.181 34.8051 32.1945C34.7689 32.4615 34.9771 32.2579 35.0585 32.3122L34.9952 32.4117C35.0993 32.3122 35.1128 32.466 35.1943 32.4389L35.1626 32.4841L35.2259 32.4298L35.1717 32.5249C35.235 32.5656 35.3481 32.5203 35.4205 32.543L35.4341 32.5294Z" fill="white"/>
    <path d="M28.9772 32.2938L28.9595 32.276C28.9595 32.276 28.9728 32.2893 28.9772 32.2938Z" fill="white"/>
    <path d="M49.7871 30.1675L49.8233 30.172L49.7283 30.1494L49.7871 30.1675Z" fill="white"/>
    <path d="M49.5924 30.0814C49.5924 30.0814 49.5472 30.0769 49.5291 30.0724L49.787 30.1448C49.9408 30.1538 49.4883 30.0724 49.5924 30.0769V30.0814Z" fill="white"/>
    <path d="M49.6203 30.0769C49.6836 30.0769 49.5615 30.0498 49.5208 30.0407C49.6158 30.0588 49.4846 30.0588 49.6203 30.0769Z" fill="white"/>
    <path d="M49.7917 28.9412C49.7917 28.9412 49.7917 28.9412 49.8016 28.9461C49.8016 28.9461 49.8016 28.9461 49.7917 28.9412Z" fill="white"/>
    <path d="M49.4528 28.5384L49.3578 28.5067C49.5162 28.6108 49.3216 28.6244 49.3849 28.7058L49.3533 28.6923C49.2763 28.8325 49.3985 29.0135 49.4392 29.1764C49.4302 29.1764 49.403 29.1628 49.3895 29.1583C49.4211 29.1719 49.4845 29.1945 49.4754 29.2036C49.4528 29.2036 49.4302 29.19 49.4211 29.1855C49.2537 29.1855 49.5071 29.2986 49.3759 29.2941C49.3895 29.3076 49.4573 29.3257 49.5116 29.3303C49.5297 29.457 49.5388 29.5837 49.6474 29.7239C49.6248 29.7239 49.5795 29.7194 49.5252 29.7058C49.7696 29.8552 49.6474 29.9366 49.584 30.0316C49.6519 30.0452 49.661 30.0316 49.7288 30.0542C49.8239 30.0361 49.5705 29.9683 49.7017 29.9592L49.7696 29.9728C49.8148 29.9592 49.6021 29.9411 49.6926 29.9321C49.7515 29.9321 49.7786 29.9502 49.7831 29.9457C49.765 29.8959 49.8329 29.8597 49.6791 29.7873C49.8284 29.8054 49.6926 29.7375 49.8374 29.7466C49.7831 29.7239 49.8012 29.7149 49.7017 29.6923C49.8103 29.5475 49.7017 29.3574 49.7424 29.1945C49.4845 29.0542 49.8419 29.0407 49.7696 28.9276C49.7786 28.9276 49.7877 28.9321 49.7967 28.9366C49.7379 28.8914 49.7153 28.8371 49.7605 28.8144L49.6519 28.7556C49.9505 28.6108 49.8329 28.3438 50.0094 28.1719C50.1677 27.9592 50.4076 27.8325 50.1677 27.4705C50.1949 27.4796 50.2085 27.4841 50.2175 27.4977C50.1949 27.4117 50.3125 27.3936 50.2854 27.3076L50.3125 27.3212C50.1632 27.0678 50.48 27.0271 50.3352 26.7692C50.4528 26.6108 50.5297 26.4027 50.5976 26.19L50.6429 26.2217C50.6429 26.0135 50.9686 26.0542 51.0048 25.8823C51.2085 25.8416 50.9777 25.3936 51.2356 25.3891C51.5071 25.5203 51.1904 24.9728 51.4709 25.1266C51.9098 25.3257 51.8646 25.0045 51.9098 24.6651C52.1496 24.6968 52.1451 24.2443 52.4573 24.4524C52.4619 24.2217 52.7243 24.6199 52.7877 24.5339L52.7605 24.466C52.8555 24.6606 52.7515 24.1583 52.8601 24.457V24.4705C52.9189 24.6199 52.8012 24.0904 52.8601 24.2714L52.842 24.1945C52.86 24.1674 52.8646 24.2805 52.8917 24.3076C52.8917 24.2986 52.86 24.1674 52.8872 24.2081C52.9596 24.5248 52.9324 24.1266 53.0048 24.4841C52.9958 24.4841 53.0456 24.6199 53.041 24.7013C53.0591 24.7375 53.0591 24.7194 53.041 24.561C53.0229 24.3981 53.0184 24.2533 52.9777 24.1312L52.9913 24.2488C52.9641 24.1312 52.9777 24.19 52.9596 24.104C52.9143 24.095 52.8827 23.923 52.8374 23.8597C52.8374 23.8597 52.8374 23.8642 52.8374 23.8733C52.851 24.018 52.8058 23.9411 52.7877 23.923L52.765 23.8597C52.7198 23.7239 52.7922 24.1357 52.7424 23.9004C52.6881 23.9773 52.6067 23.9954 52.5343 24.0271C52.5524 24.1176 52.4754 24.0407 52.5524 24.199C52.4664 24.018 52.3895 23.9909 52.3714 24.0045C52.3668 23.9864 52.3578 23.9683 52.3623 23.9728C52.222 23.7466 52.4076 24.2126 52.2492 23.9366C52.3352 24.1447 52.1542 23.9004 52.2401 24.1538C52.213 24.1085 52.1949 24.0723 52.1813 24.0316C52.1134 24.0588 52.0048 24.0181 51.946 24.0407C51.9958 24.2398 51.7922 24.0271 51.8872 24.285C51.8284 24.2533 51.7153 24.1855 51.7288 24.3031L51.7153 24.2714C51.6745 24.3167 51.6248 24.371 51.6881 24.5339C51.5297 24.3257 51.5388 24.3846 51.4709 24.3303C51.5071 24.4524 51.4257 24.466 51.4438 24.5882C51.3623 24.4977 51.4392 24.6561 51.3306 24.5203C51.4166 24.8914 51.1994 24.9004 50.9053 24.8416L50.8963 24.8325C50.946 24.9185 51.0772 25.0859 51.1451 25.19C51.1315 25.1809 51.1134 25.1583 51.118 25.1583C51.118 25.2036 50.9777 25.0995 50.9822 25.1447C50.9822 25.1447 50.9702 25.1297 50.946 25.0995C50.9822 25.1719 50.8058 25.0452 50.8782 25.1628L50.842 25.1312L50.8736 25.19C50.8329 25.1493 50.7696 25.0904 50.7922 25.095C50.5659 25.2533 50.6248 25.647 50.4438 25.828L50.403 25.7873L50.4528 25.8868C50.4302 25.8687 50.4211 25.8597 50.4076 25.8506C50.2899 25.8506 50.3895 25.9954 50.3306 26.0316C50.308 26.0135 50.2673 25.9773 50.2356 25.9683C50.3397 26.095 50.0229 25.9185 50.2809 26.1176C50.2673 26.1131 50.2039 26.0723 50.1858 26.0542C50.1994 26.2171 50.1361 26.3257 50.0275 26.4162C50.2356 26.6561 49.9415 26.6289 50.0953 26.8325L50.041 26.8054C50.1587 27.0181 49.9098 27.0588 49.8827 27.2081C49.8374 27.2533 49.8827 27.3167 49.8646 27.3755L49.7967 27.3484C50.0139 27.5475 49.4754 27.4524 49.7288 27.6651L49.6383 27.6244C49.7786 27.6968 49.5659 27.6651 49.8148 27.7511L49.7334 27.742C50.041 27.9276 49.5388 27.8099 49.7243 27.9683L49.6655 27.9411C49.7017 27.9773 49.7334 28.018 49.67 28.0135C49.661 28.009 49.6429 28.0045 49.6293 27.9909C49.3668 27.9819 49.6021 28.1447 49.5705 28.2126L49.4619 28.1674C49.5795 28.2443 49.4347 28.2714 49.4845 28.3348L49.4347 28.3167L49.5026 28.3619L49.394 28.3303C49.3714 28.3891 49.4483 28.4751 49.4438 28.5384H49.4528Z" fill="white"/>
    <path d="M52.8101 23.8416C52.8101 23.8416 52.8189 23.855 52.8234 23.8594C52.8189 23.8372 52.8145 23.8461 52.8101 23.8416Z" fill="white"/>
  </g>
  <defs>
    <clipPath id="clip0_283_1169">
      <rect width="62.2036" height="58" fill="white"/>
    </clipPath>
  </defs>
</svg>