<svg width="20" height="20" viewBox="0 0 20 20" fill="none" xmlns="http://www.w3.org/2000/svg">
<path fill-rule="evenodd" clip-rule="evenodd" d="M19.2 10.2178C19.2 9.53826 19.139 8.88486 19.0258 8.25758H10V11.9646H15.1576C14.9354 13.1625 14.2602 14.1775 13.2453 14.857V17.2616H16.3424C18.1545 15.5932 19.2 13.1364 19.2 10.2178Z" fill="#4285F4"/>
<path fill-rule="evenodd" clip-rule="evenodd" d="M9.99956 19.5832C12.5871 19.5832 14.7564 18.7251 16.342 17.2614L13.2448 14.8569C12.3867 15.4319 11.289 15.7716 9.99956 15.7716C7.50354 15.7716 5.39085 14.0859 4.63725 11.8207H1.43555V14.3037C3.01244 17.4357 6.25335 19.5832 9.99956 19.5832Z" fill="#34A853"/>
<path fill-rule="evenodd" clip-rule="evenodd" d="M4.63753 11.8209C4.44586 11.2459 4.33696 10.6317 4.33696 10.0001C4.33696 9.36843 4.44586 8.75422 4.63753 8.17922V5.69627H1.43582C0.786769 6.99002 0.416504 8.45365 0.416504 10.0001C0.416504 11.5465 0.786769 13.0101 1.43582 14.3038L4.63753 11.8209Z" fill="#FBBC05"/>
<path fill-rule="evenodd" clip-rule="evenodd" d="M9.99956 4.22822C11.4066 4.22822 12.6698 4.71175 13.663 5.66137L16.4117 2.91269C14.752 1.36629 12.5827 0.416672 9.99956 0.416672C6.25335 0.416672 3.01244 2.56421 1.43555 5.69622L4.63725 8.17917C5.39085 5.91402 7.50354 4.22822 9.99956 4.22822Z" fill="#EA4335"/>
</svg>
