<svg xmlns="http://www.w3.org/2000/svg" width="22" height="22" viewBox="0 0 22 22" fill="none">
    <path d="M8.1419 20.5857C6.46637 20.0868 4.97491 19.1606 3.79393 17.9335C4.23449 17.4114 4.5 16.7367 4.5 16.0001C4.5 14.3432 3.15685 13.0001 1.5 13.0001C1.39977 13.0001 1.3007 13.005 1.20299 13.0146C1.0699 12.3639 1 11.6901 1 11.0001C1 9.95475 1.16039 8.9469 1.45789 7.99977C1.47191 7.99997 1.48594 8.00006 1.5 8.00006C3.15685 8.00006 4.5 6.65692 4.5 5.00006C4.5 4.52442 4.38931 4.07463 4.19228 3.67505C5.34877 2.59975 6.76026 1.79501 8.32603 1.36157C8.8222 2.3341 9.83333 3.00006 11 3.00006C12.1667 3.00006 13.1778 2.3341 13.674 1.36157C15.2397 1.79501 16.6512 2.59975 17.8077 3.67505C17.6107 4.07463 17.5 4.52442 17.5 5.00006C17.5 6.65692 18.8431 8.00006 20.5 8.00006C20.5141 8.00006 20.5281 7.99997 20.5421 7.99977C20.8396 8.9469 21 9.95475 21 11.0001C21 11.6901 20.9301 12.3639 20.797 13.0146C20.6993 13.005 20.6002 13.0001 20.5 13.0001C18.8431 13.0001 17.5 14.3432 17.5 16.0001C17.5 16.7367 17.7655 17.4114 18.2061 17.9335C17.0251 19.1606 15.5336 20.0868 13.8581 20.5857C13.4714 19.376 12.338 18.5001 11 18.5001C9.66201 18.5001 8.5286 19.376 8.1419 20.5857Z" stroke="white" stroke-width="2" stroke-linejoin="round"/>
    <path d="M11 14.5C12.933 14.5 14.5 12.933 14.5 11C14.5 9.067 12.933 7.5 11 7.5C9.067 7.5 7.5 9.067 7.5 11C7.5 12.933 9.067 14.5 11 14.5Z" stroke="white" stroke-width="2" stroke-linejoin="round"/>
</svg>