<svg xmlns="http://www.w3.org/2000/svg" width="48" height="71" viewBox="0 0 48 71" fill="none">
  <g clip-path="url(#clip0_914_3677)">
    <path d="M46.0126 30.0258C46.0126 30.0258 45.6706 28.7 44.7291 28.0774C44.7713 27.9314 44.8098 27.7815 44.8482 27.6316C45.955 27.8045 47.0118 27.0013 47.0118 27.0013C47.0118 27.0013 46.4085 25.5679 45.2287 25.0606C45.244 24.7954 45.2517 24.5264 45.2517 24.2574C45.2517 21.8055 44.6522 19.469 43.5646 17.3438C44.5292 14.8189 44.1488 6.0068 43.9297 2.19066C43.8682 1.1492 43.0304 0.376745 42.0735 0.468978C37.6579 0.903241 31.1362 3.29361 28.3231 6.88302C26.8435 6.61785 25.3102 6.47565 23.7384 6.47565C22.1666 6.47565 20.6293 6.61785 19.1536 6.88302C16.3444 3.29361 9.82271 0.907085 5.40706 0.468978C4.45014 0.372902 3.61236 1.1492 3.55087 2.19066C3.33182 6.01064 2.94751 14.8189 3.91596 17.3438C2.82838 19.469 2.22886 21.8055 2.22886 24.2574C2.22886 24.5303 2.24039 24.7954 2.25192 25.0606C1.07211 25.5679 0.46875 27.0013 0.46875 27.0013C0.46875 27.0013 1.52559 27.8045 2.63238 27.6316C2.67081 27.7815 2.70924 27.9275 2.75152 28.0774C1.80997 28.6961 1.46794 30.0258 1.46794 30.0258C1.46794 30.0258 2.57474 30.7022 3.6431 30.414C3.73149 30.5907 3.81604 30.7675 3.90827 30.9405C3.16657 31.6015 3.01284 32.8082 3.01284 32.8082C3.01284 32.8082 4.1965 33.3808 5.26102 32.9773C7.4554 35.7519 10.7105 37.8656 14.5996 39.1492C11.0755 42.2159 8.47381 46.9967 7.4823 52.6075C5.92587 54.3676 4.95358 56.8887 4.95358 59.6941C4.95358 65.0129 8.46228 69.3248 12.7934 69.3248C12.9779 69.3248 13.1585 69.3132 13.3353 69.2979C16.1906 70.3509 19.8031 70.4469 23.7384 70.4469C27.6736 70.4469 31.2861 70.3509 34.1415 69.2979C34.3221 69.3132 34.5027 69.3248 34.6834 69.3248C39.0106 69.3248 42.5232 65.0129 42.5232 59.6941C42.5232 56.8925 41.547 54.3676 39.9944 52.6075C38.9991 47.0005 36.4012 42.2159 32.8771 39.1492C36.7663 37.8656 40.0252 35.7519 42.2157 32.9773C43.2802 33.3808 44.4639 32.8082 44.4639 32.8082C44.4639 32.8082 44.3102 31.6015 43.5685 30.9405C43.6607 30.7675 43.7491 30.5907 43.8336 30.414C44.902 30.7022 46.0088 30.0258 46.0088 30.0258H46.0126Z" fill="#3B3634"/>
    <path d="M45.7437 29.5876C45.7437 29.5876 45.6899 29.5953 45.6591 29.603C45.5976 29.6645 45.5323 29.726 45.4631 29.7836C45.5631 29.7222 45.6783 29.6491 45.7437 29.5876Z" fill="#1B1B1B"/>
    <path d="M44.1375 30.1256C44.2182 30.1525 44.1797 30.1717 44.2566 30.1986C44.5948 30.1409 44.9099 30.0103 45.1981 29.8335C44.9714 29.8412 44.81 29.9411 44.6486 30.0333C44.5679 30.0833 44.491 30.1179 44.4103 30.1448C44.3258 30.164 44.2796 30.1794 44.1375 30.1294V30.1256Z" fill="#1B1B1B"/>
    <path d="M43.6224 30.0371C43.5916 30.0871 43.5647 30.137 43.5378 30.1831L43.4994 30.2523C43.4686 30.3138 43.4341 30.3753 43.4033 30.4368C43.3572 30.5252 43.3188 30.6097 43.2842 30.6789C43.2842 30.6789 43.2688 30.7135 43.2842 30.6904C43.361 30.5405 43.3188 30.6251 43.3226 30.6213C43.3111 30.6443 43.3034 30.6674 43.2919 30.6904C43.2727 30.7365 43.2573 30.775 43.2419 30.8172C43.215 30.8903 43.1843 30.9633 43.1804 31.0056C43.2803 31.0786 43.3495 31.117 43.4033 31.1516C43.3534 31.1247 43.288 31.0747 43.2112 31.0017C43.2227 30.9556 43.265 30.8826 43.2919 30.8211L43.3418 30.7212L43.3687 30.6712L43.3803 30.6443C43.3803 30.6443 43.4072 30.5943 43.3572 30.6904C43.4187 30.5674 43.484 30.4445 43.5378 30.3407C43.6262 30.1678 43.68 30.0371 43.6262 30.041L43.6224 30.0371Z" fill="#1B1B1B"/>
    <path d="M42.2043 59.1213C42.2005 59.0829 42.1928 59.0291 42.189 58.9868C42.189 59.056 42.1967 59.0983 42.2043 59.1213Z" fill="#1B1B1B"/>
    <path d="M38.615 68.0833L38.5766 68.2178C39.3375 67.6183 40.0523 66.8843 40.6556 66.0503C41.259 65.2164 41.7432 64.271 42.0276 63.3026L42.0161 63.4448C42.8539 61.0083 42.8039 58.4027 42.0084 56.0853C41.6087 54.9247 41.013 53.8333 40.2175 52.8956L40.0677 52.7227L39.9908 52.6343C39.9639 52.6035 39.9677 52.5613 39.9562 52.5228L39.8601 52.0694C39.7986 51.7658 39.7295 51.466 39.6488 51.1662C39.5027 50.5629 39.326 49.9634 39.1338 49.3639C39.1645 49.4369 39.1991 49.4523 39.2337 49.5291C39.13 49.3062 38.9954 49.0641 38.9224 48.8028C38.9224 48.7298 38.9839 48.8643 39.0185 48.945C38.9263 48.4146 38.638 47.6845 38.3306 47.0196C38.027 46.3548 37.7042 45.7514 37.6004 45.4324C37.4505 45.1711 37.3391 45.0827 37.3737 45.2518C36.459 43.5148 35.2831 41.8353 33.8573 40.3865L33.5844 40.1175L33.4461 39.983C33.4038 39.9407 33.3577 39.8946 33.2808 39.8293L32.4623 39.0953L32.4354 39.0722C32.4354 39.0722 32.4507 39.0645 32.4584 39.0607L32.5238 39.0376L32.6506 38.9915L32.9081 38.8993L33.4269 38.711L33.669 38.6187L33.8458 38.5495L34.1993 38.4074C35.1332 38.0154 36.0363 37.558 36.8818 37.0469C37.0547 36.9662 37.1047 36.9816 37.0855 37.0508C38.2845 36.2476 39.4412 35.356 40.4904 34.3376C40.7517 34.0801 41.0092 33.8226 41.2513 33.5497C41.3743 33.4114 41.5011 33.2807 41.6164 33.1385L41.8508 32.8542L42.0007 32.6735L42.0737 32.5851C42.1045 32.5736 42.1467 32.6005 42.1813 32.6082L42.4042 32.6735C42.4734 32.6966 42.5733 32.7235 42.6118 32.7312C42.6886 32.7542 42.7693 32.7581 42.8462 32.7696C43.0076 32.7811 43.1728 32.7811 43.3381 32.7696C43.5033 32.7504 43.6724 32.7235 43.8377 32.6812L43.9607 32.6466C43.9952 32.6351 44.0298 32.6236 44.0606 32.6082C44.0567 32.5582 44.0452 32.5083 44.0337 32.4545L44.0221 32.4122L43.9952 32.32C43.976 32.2585 43.9568 32.2008 43.9376 32.1393C43.8531 31.9011 43.7416 31.682 43.6071 31.486C43.4957 31.4284 43.7262 31.7704 43.511 31.5667C43.7493 31.9357 43.9645 32.5813 43.976 32.5544C43.9607 32.5736 43.9338 32.589 43.903 32.6044C43.88 32.6159 43.8876 32.6159 43.8377 32.6313C43.7839 32.6505 43.7339 32.662 43.6801 32.6774C43.4688 32.7273 43.2459 32.7504 43.0306 32.7235L43.1421 32.662C42.8308 32.6505 42.8039 32.662 42.7616 32.6966C42.7424 32.712 42.7232 32.7235 42.6656 32.7197C42.654 32.7197 42.6348 32.7158 42.6194 32.712C42.5925 32.7043 42.5579 32.6966 42.5195 32.6889C42.4234 32.6543 42.2966 32.612 42.1391 32.5582C42.1083 32.5506 42.0776 32.5275 42.0584 32.5313C42.043 32.5467 42.0276 32.5582 42.0161 32.5698C41.993 32.589 41.9776 32.6005 41.97 32.6005C41.9546 32.6005 41.97 32.5775 41.9892 32.539C42.0238 32.4506 42.116 32.4314 42.0122 32.4737C41.8278 32.7004 41.6433 32.9272 41.4588 33.1539L41.0707 33.592C40.8055 33.8764 40.5288 34.1569 40.2444 34.4221C39.6795 34.9563 39.0954 35.4559 38.542 35.9401C38.3537 35.9862 38.0193 36.2322 37.6389 36.4666C37.2661 36.7087 36.8549 36.9393 36.5743 37.0239C36.2477 37.2621 35.8787 37.4351 35.7788 37.5734C35.1639 37.8693 34.5337 38.1383 33.888 38.3805L33.6459 38.4727C33.596 38.4919 33.4038 38.5649 33.277 38.6072L32.4315 38.8993L32.2202 38.9723L32.1664 38.9915C32.1664 38.9915 32.1202 39.003 32.1472 39.0184L32.2279 39.0953L32.5584 39.3989L33.2194 40.0022C34.2378 40.9822 35.1063 42.0275 35.8941 43.1804C37.4621 45.4747 38.5958 48.0918 39.2721 50.8204C39.3759 51.1355 39.4835 51.4545 39.5642 51.7927C39.6026 51.9618 39.6449 52.1309 39.6834 52.3038L39.7448 52.5843C39.741 52.715 39.8717 52.8149 39.9255 52.8918C40.3866 53.426 40.7901 54.0408 41.1091 54.7172C41.7624 56.0623 42.0929 57.5957 42.2121 59.1329C42.2044 59.1559 42.1967 59.1521 42.1852 59.1329C42.239 59.6325 42.2467 60.255 42.1929 60.8968C42.1352 61.5386 42.0122 62.1996 41.8316 62.7722C41.7701 63.1066 41.7086 63.4486 41.6049 63.7753C41.4396 64.2019 41.2129 64.6015 41.0054 65.005C40.7594 65.3893 40.525 65.7775 40.2329 66.1311C39.6718 66.842 39.007 67.4761 38.2537 67.9757C37.4967 68.4676 36.6435 68.8097 35.7596 68.9634L35.4291 69.0249L35.0909 69.0441C34.868 69.0556 34.6413 69.0787 34.4184 69.0556L34.2493 69.0479C34.1532 69.0402 34.0725 69.0326 33.988 69.0748L33.6421 69.194C33.4269 69.2708 33.2001 69.3285 32.9811 69.3938C31.1979 69.878 29.3264 70.051 27.4586 70.1317C25.5871 70.2047 23.704 70.1893 21.8286 70.1509C19.7034 70.1048 17.6397 69.9856 15.6836 69.5898C15.1955 69.4822 14.7151 69.3707 14.2463 69.2247C14.008 69.1555 13.7813 69.0748 13.5507 68.9941L13.4008 68.9403C13.3508 68.9249 13.297 68.9403 13.2394 68.9403L13.0395 68.948C12.9204 68.948 12.8051 68.9672 12.686 68.948C11.7406 68.9326 10.8144 68.6867 9.98048 68.2563C8.30107 67.3916 7.02134 65.862 6.21046 64.1135C5.42648 62.3457 5.07676 60.3434 5.23817 58.3028C5.26123 58.3143 5.28044 58.2528 5.26892 58.4642C5.36883 57.2921 5.67628 56.1929 6.1336 55.1938C6.36418 54.6942 6.62935 54.2138 6.92911 53.7603C7.07899 53.5336 7.2404 53.3145 7.40949 53.0993L7.54015 52.9417C7.56705 52.8995 7.67082 52.7995 7.71309 52.7188L7.79764 52.2423L7.82069 52.2538C8.24727 49.5061 9.23109 46.7237 10.6799 44.2449C11.4063 43.0075 12.2517 41.8469 13.1856 40.7977C13.4123 40.5287 13.6621 40.2828 13.9042 40.0291C13.9696 39.9638 14.0157 39.91 14.0964 39.8331L14.3423 39.6025L14.815 39.1529L14.8458 39.126C14.8458 39.126 14.8688 39.1068 14.8458 39.1029L14.7651 39.076L14.6075 39.0222L14.2962 38.9185C14.0964 38.8531 13.8658 38.7801 13.7082 38.7225C13.3854 38.6149 13.0664 38.4996 12.7513 38.3805C11.0796 37.6656 9.4194 36.7318 7.90524 35.5174C7.14816 34.9102 6.43336 34.2338 5.78004 33.4883C5.69549 33.396 5.62247 33.2999 5.53793 33.2L5.39958 33.0348L5.3304 32.9502C5.30735 32.9272 5.28813 32.8811 5.2497 32.908C4.95763 33.0117 4.72705 33.0502 4.48109 33.054C3.99687 33.0655 3.46653 32.9425 3.09375 32.7735C3.11297 32.6351 3.14371 32.4968 3.18599 32.3546C3.2321 32.197 3.28591 32.0317 3.35508 31.8742C3.49727 31.5514 3.66252 31.2708 3.97765 30.9749C3.96997 30.9288 3.92769 30.8711 3.90463 30.8173C3.88158 30.7712 3.85852 30.729 3.83546 30.6828L3.74707 30.5099C3.72017 30.4638 3.69711 30.3985 3.66252 30.3639C3.25132 30.4676 2.90544 30.4638 2.53651 30.3908C2.35589 30.3562 2.17142 30.3024 1.99464 30.237C1.82939 30.1717 1.66798 30.1064 1.52195 30.018C1.62955 29.6298 1.82939 29.1802 2.09841 28.7959C2.23675 28.6038 2.38279 28.427 2.57494 28.2694C2.6518 28.181 2.84396 28.1426 2.74788 27.9889C2.70945 27.8659 2.68639 27.7237 2.63643 27.6238C2.07919 27.7083 1.60265 27.5853 1.12996 27.3893L1.16455 27.3509C0.918591 27.2433 0.722596 27.1434 0.534287 27.005C0.591933 26.8705 0.661107 26.736 0.737968 26.6054C0.818672 26.4709 0.907062 26.3287 1.00314 26.198C1.19529 25.9328 1.41819 25.6907 1.67183 25.487C1.80249 25.3871 1.92547 25.2987 2.08688 25.2142L2.20601 25.1565C2.23675 25.1296 2.31362 25.1335 2.29056 25.0758L2.28287 24.8107C2.27134 24.4725 2.2675 24.1535 2.28287 23.823C2.33667 22.5164 2.5711 21.2251 2.96309 19.9915C3.15908 19.3728 3.39351 18.7694 3.66637 18.1814C3.73554 18.0354 3.80472 17.8893 3.87773 17.7433L4.00071 17.5012C4.01608 17.4551 4.0622 17.409 4.05451 17.3629L4.01224 17.213L3.93922 16.9593C3.92001 16.8825 3.88926 16.8095 3.87773 16.7288L3.7855 16.2561C3.57029 14.9802 3.51649 13.662 3.455 12.3438C3.43578 9.48846 3.45884 6.54853 3.53955 3.60092L3.57413 2.49412C3.57413 2.12519 3.60872 1.7601 3.78166 1.4296C3.93922 1.10294 4.20824 0.822398 4.53105 0.653304C4.6963 0.568757 4.87308 0.511112 5.0537 0.48421C5.23817 0.461152 5.42264 0.476524 5.60326 0.499583C7.06362 0.653304 8.49707 0.97612 9.86904 1.42576C11.5369 2.05986 13.4815 2.74392 15.2762 3.72005C16.1716 4.20812 17.0402 4.7423 17.778 5.38025C17.9702 5.53013 18.1393 5.69922 18.3122 5.86447C18.4813 6.02972 18.6542 6.19113 18.7926 6.37175C18.8656 6.46014 18.9348 6.54853 19.0078 6.63308L19.1 6.74837L19.1461 6.80602L19.1692 6.83676H19.2038C19.3921 6.80986 19.6111 6.78296 19.8225 6.76759C21.5404 6.59849 23.2467 6.56775 24.9376 6.67151C25.7831 6.72531 26.6247 6.8137 27.4586 6.93284L28.1158 7.0366C28.2503 7.04813 28.4117 7.13652 28.4847 6.97127L28.7345 6.67919C28.992 6.35254 29.3033 6.06815 29.5954 5.77224C30.829 4.64238 32.2624 3.72005 33.7728 2.93991C35.2869 2.17131 36.8818 1.52568 38.5381 1.02992C39.3144 0.853143 40.0946 0.676363 40.8824 0.561071C41.2744 0.488054 41.6702 0.457309 42.066 0.403507C42.4772 0.365076 42.9038 0.48421 43.2343 0.730165C43.5648 0.979963 43.8146 1.33352 43.9261 1.7332C43.9837 1.92919 44.0106 2.1444 44.0183 2.33656L44.0567 2.92839C44.1029 3.71621 44.149 4.50788 44.1951 5.29186C44.2758 6.8675 44.3296 8.43547 44.3257 9.99958C44.3181 11.5599 44.2719 13.1163 44.0721 14.6497C44.0529 15.3798 43.9722 16.1331 43.7839 16.8786L43.6955 17.1553L43.6571 17.2745L43.6378 17.336C43.634 17.3552 43.6532 17.3744 43.6571 17.3936C43.7224 17.5358 43.8146 17.7356 43.8838 17.9086C44.0375 18.266 44.1682 18.6387 44.295 19.0115C44.7831 20.5141 45.029 22.1129 45.1097 23.7192L45.1635 23.6001C45.1328 23.8922 45.1328 24.1958 45.1328 24.5032C45.1366 24.6685 45.1405 24.8337 45.1443 24.999C45.152 25.0374 45.1366 25.0912 45.1635 25.1181L45.2865 25.1681C45.3672 25.1988 45.4479 25.2334 45.5094 25.268C46.0397 25.5293 46.4317 25.9559 46.5201 26.3248C46.4932 26.2941 46.4663 26.2633 46.4394 26.2326C46.4971 26.3671 46.5893 26.5054 46.6815 26.6207C46.7661 26.7245 46.8737 26.8475 46.989 27.005C46.916 27.1203 46.7891 27.2356 46.6546 27.3355C46.5163 27.4316 46.4087 27.4816 46.2972 27.4816L46.2281 27.5853C45.8668 27.7275 45.8322 27.7006 45.8284 27.6776C45.8207 27.6507 45.8361 27.6276 45.544 27.666C45.4364 27.6891 45.4172 27.716 45.3711 27.7468C45.348 27.7621 45.3134 27.7737 45.2558 27.7852C45.2135 27.7852 45.152 27.7929 45.0598 27.7775C45.029 27.7352 44.9714 27.7006 44.8715 27.6737C44.81 27.7199 44.7715 27.8966 44.7254 28.0619C44.7101 28.0888 44.7331 28.1003 44.7523 28.1118L44.81 28.1541C44.8484 28.181 44.8907 28.2079 44.9253 28.2387C44.9983 28.3002 45.0713 28.3616 45.1366 28.4308C45.4018 28.696 45.5478 28.9957 45.4441 29.0764C45.2442 28.7498 45.6516 29.6452 45.1482 28.9612C45.2058 29.0649 45.3864 29.357 45.5209 29.6375C45.6631 29.9142 45.7592 30.1602 45.8092 30.0872C45.9667 30.1525 46.2204 30.606 46.1166 29.8258L45.9667 29.7105C45.9667 29.43 45.9398 29.5069 45.9744 29.3916C45.7669 28.9189 45.6247 28.6537 45.4902 28.4154C45.4249 28.2963 45.3518 28.1849 45.2635 28.0696C45.1943 27.9966 45.2212 28.0042 45.2058 27.9773L45.1943 27.9504V27.9389L45.1904 27.9581C45.1904 27.9581 45.1866 27.9581 45.1789 27.9581C45.1366 28.0004 45.1097 28.0042 45.1097 28.0081C45.1751 28.0042 45.2327 28.0119 45.5132 27.9927C45.7361 27.9696 45.9398 27.9351 46.0935 27.8928C46.155 27.8928 46.2127 27.8928 46.2742 27.8928C46.3472 27.9005 46.451 27.8544 46.5624 27.7929C46.6162 27.7583 46.6738 27.7237 46.7238 27.6853C46.8007 27.6353 46.8891 27.57 46.9544 27.5162C47.2234 27.2933 47.3464 27.1396 47.2657 27.3317C47.3349 27.2779 47.4079 27.2241 47.4963 27.1549C47.4079 26.9666 47.3272 26.7821 47.2272 26.5938L47.0735 26.3287L46.9621 26.1596C46.8084 25.9328 46.6316 25.7138 46.4317 25.5101C46.2319 25.3064 46.0052 25.1143 45.7438 24.9567C45.6593 24.9029 45.6747 24.9144 45.6439 24.8991C45.6285 24.8875 45.594 24.8837 45.5901 24.8645V24.6646C45.6324 23.554 45.5209 22.4165 45.3057 21.3135C45.1904 21.0061 44.883 19.5995 44.8715 20.126C44.8753 19.8262 44.7562 19.2613 44.5717 18.7079C44.4833 18.4312 44.3757 18.1545 44.2758 17.9163C44.222 17.7971 44.172 17.6857 44.1298 17.5857C44.0875 17.5012 44.0529 17.4282 44.0221 17.3705C44.0298 17.3705 44.0414 17.3705 44.0452 17.3705C44.0529 17.3705 44.076 17.4128 44.0913 17.4551C44.0836 17.4243 44.0606 17.3667 44.0644 17.359L44.0721 17.3398C44.0721 17.3398 44.0836 17.3244 44.0913 17.3206H44.099C44.099 17.3321 44.1182 17.2706 44.1259 17.2514C44.1451 17.1899 44.1605 17.1323 44.1797 17.0785C44.245 16.8556 44.2412 16.6711 44.2604 16.4866C44.2796 16.3022 44.2873 16.1215 44.3142 15.9217C44.3411 15.718 44.4065 15.4913 44.4987 15.2107C44.4103 15.1108 44.4872 14.592 44.5256 14.0117C44.5794 13.4314 44.5986 12.7973 44.5025 12.4707C44.5486 12.3323 44.5871 12.2862 44.6217 12.3362C44.6793 10.2801 44.7062 8.01657 44.6524 6.28336C44.5448 5.5455 44.5256 4.65007 44.4948 3.78154C44.4795 3.34728 44.4603 2.91686 44.4257 2.52102C44.4141 2.4211 44.4065 2.32503 44.3988 2.22895C44.3834 2.12903 44.3719 2.00221 44.3411 1.89845C44.2912 1.6794 44.1912 1.48724 44.0913 1.32584C43.9645 1.03761 43.757 0.718636 43.4303 0.461152C43.1113 0.176767 42.6617 -0.0076989 42.1775 -1.28149e-05C42.0468 -1.28149e-05 41.9546 0.0115163 41.8624 0.0230454L41.5741 0.0537898C41.382 0.076848 41.186 0.0922202 40.9938 0.130651C40.6095 0.199825 40.2252 0.269 39.864 0.372762L40.0023 0.315117C39.1722 0.480367 38.2576 0.730165 37.4236 0.999178C36.5897 1.28356 35.8365 1.59485 35.3292 1.87155C35.0602 1.86386 34.7604 1.93688 34.4376 2.04449C34.1225 2.15978 33.7881 2.30581 33.4384 2.42879C33.1963 2.57867 32.8889 2.75545 32.5391 2.95144C32.201 3.16665 31.809 3.37802 31.4247 3.63935C30.6368 4.1351 29.8452 4.7692 29.2264 5.38025C29.0958 5.43405 28.8421 5.69538 28.6039 5.93364C28.3925 6.18344 28.1427 6.47167 28.1542 6.34485C28.1542 6.35254 28.1504 6.36791 28.1427 6.37559C28.135 6.37559 28.1235 6.37944 28.112 6.38328H28.1043L28.0505 6.37559L27.9352 6.36407L27.7046 6.34101C27.3971 6.31026 27.0859 6.27952 26.7707 6.25646C26.1405 6.2065 25.4948 6.17576 24.8415 6.16038C23.531 6.13348 22.186 6.18344 20.8332 6.32563C20.495 6.36022 20.1569 6.4025 19.8225 6.44861L19.369 6.51394C19.3383 6.51394 19.2999 6.537 19.2768 6.51394L19.2192 6.43708L18.8925 6.04894C18.781 5.91443 18.6504 5.79914 18.5313 5.67616L18.1662 5.30723L17.778 4.96904C16.7442 4.06977 15.6182 3.32806 14.4961 2.69012L14.5691 2.71317C14.2539 2.59404 13.9042 2.49028 13.5468 2.40957C13.1933 2.31734 12.8359 2.23664 12.5054 2.16362C12.4477 2.12519 12.4669 2.10597 12.5976 2.16362C11.7368 1.82543 10.9566 1.41038 10.0612 1.14906C10.0714 1.13368 10.1265 1.13368 10.2264 1.14906C9.37328 0.960748 8.52013 0.526484 7.47482 0.441937L7.42486 0.391977C7.20581 0.361233 6.98675 0.349704 6.7677 0.330489C6.79076 0.284372 6.82919 0.215198 7.17506 0.292058C6.67931 0.203668 6.17972 0.119121 5.67243 0.0653189C5.45338 0.0268885 5.08061 0.00383023 4.78469 0.0845341C4.47725 0.157552 4.18902 0.307431 3.95075 0.507269C3.46653 0.903102 3.18214 1.49877 3.13603 2.10213C3.10528 2.62478 3.08607 3.10901 3.06301 3.61629C2.9823 5.6262 2.93619 7.64764 2.95156 9.68061C2.97462 11.7136 3.00921 13.7504 3.29743 15.7987C3.32818 16.0562 3.37814 16.3099 3.43578 16.5673C3.46653 16.6942 3.4819 16.8248 3.52417 16.9516L3.62409 17.2706L3.63947 17.3167C3.63947 17.3167 3.62794 17.3475 3.62025 17.3629L3.5626 17.482C3.50496 17.5973 3.45116 17.7164 3.39735 17.8317C3.28975 18.0661 3.18983 18.3044 3.09375 18.5427C2.70945 19.5034 2.42122 20.4988 2.22523 21.5133L2.2406 21.2059C2.15989 21.7362 2.10609 22.2704 2.08303 22.8046C2.05997 22.7931 2.05613 22.7162 2.05229 22.6393C1.98696 23.0659 1.95237 23.4963 1.94084 23.9306C1.93315 24.1497 1.937 24.3649 1.94853 24.5839L1.96006 24.8145V24.8914C1.96006 24.8914 1.92163 24.9144 1.90241 24.926C1.87935 24.9375 1.86014 24.949 1.83708 24.9644L1.6872 25.0605C1.59497 25.1335 1.49889 25.1988 1.41434 25.2795C1.23756 25.4294 1.08769 25.5985 0.945493 25.7753C0.8033 25.9482 0.680323 26.1327 0.565031 26.321C0.518915 26.3978 0.422839 26.5631 0.365193 26.6861C0.299862 26.8167 0.242216 26.9474 0.18457 27.0819C0.365193 27.2203 0.553502 27.3432 0.753341 27.4547C0.868632 27.5162 0.914748 27.5392 0.999295 27.5777C1.07616 27.6122 1.15302 27.6468 1.22988 27.6776C1.21451 27.6968 0.899376 27.6161 1.1607 27.7583C1.4374 27.8428 1.69873 27.9005 1.94853 27.9351C2.25597 27.9697 2.31362 27.9658 2.39432 27.9658C2.39432 27.9773 2.38663 27.9658 2.36358 27.962C2.2944 28.0042 2.30593 27.9812 2.15605 28.1272C1.937 28.3501 1.7948 28.5922 1.74485 28.8497C1.69873 28.9035 1.61802 28.915 1.68336 28.769C1.57575 28.9535 1.47968 29.1418 1.39513 29.3378C1.36438 29.4146 1.28752 29.5991 1.24525 29.7374C1.19529 29.8835 1.1607 30.0295 1.12227 30.1756C1.3567 30.3177 1.62571 30.4523 1.87167 30.5445C2.05997 30.6137 2.25597 30.6675 2.45581 30.7097C2.83243 30.7981 3.38582 30.7751 3.49343 30.7251C3.5088 30.7366 3.51649 30.7674 3.53186 30.7866L3.53955 30.802V30.8097C3.53955 30.8097 3.55108 30.8212 3.53955 30.802L3.51265 30.752C3.49343 30.7136 3.5088 30.7443 3.50496 30.7366L3.52417 30.7712L3.54339 30.8058V30.8135L3.59335 30.9019C3.59335 30.9019 3.59719 30.9019 3.59335 30.9057C3.5088 30.9634 3.21289 31.3746 3.08222 31.7012C3.00536 31.8742 2.94387 32.0471 2.89007 32.2277C2.8209 32.4622 2.77478 32.7197 2.74019 32.9656C3.03995 33.1193 3.45884 33.2538 3.68174 33.2961C3.94691 33.3538 4.21592 33.3845 4.49262 33.3807C4.63097 33.3807 4.76932 33.3653 4.90767 33.3422L5.06139 33.3076L5.15747 33.2769C5.21127 33.2884 5.24586 33.3691 5.29197 33.4114C5.36883 33.5036 5.45338 33.6112 5.53408 33.7035C6.20662 34.4836 6.95217 35.1984 7.74383 35.844C9.16192 36.8163 10.7183 37.731 12.3862 38.465C12.8051 38.6456 13.224 38.8186 13.6506 38.9761C13.8312 39.0491 13.9657 39.0876 14.1271 39.1452L14.2463 39.1836C14.2847 39.1952 14.3462 39.2067 14.2885 39.2374L14.1118 39.4027C13.9042 39.5872 13.5622 39.9561 13.2586 40.2751C12.9704 40.6171 12.6745 40.9553 12.4208 41.3165L12.3939 41.2704C11.0104 43.0882 9.82292 45.1327 8.93133 47.3271C8.48554 48.4223 8.10508 49.5522 7.80532 50.7051L7.59396 51.5736L7.41718 52.446C7.41718 52.5805 7.30957 52.6458 7.21349 52.7726C7.11358 52.8841 7.02903 53.0071 6.93679 53.1262C6.76002 53.3645 6.59092 53.6143 6.44104 53.8679C5.91839 54.7057 5.6071 55.4858 5.37652 56.2775C5.15362 57.073 4.99606 57.8877 4.93073 58.8754L4.8654 58.9215C4.89614 60.5894 5.0537 62.3418 5.68396 64.0097C6.28348 65.666 7.39027 67.234 8.90443 68.1294L8.66232 68.0526C8.90828 68.1756 9.35791 68.4561 9.73837 68.6675C10.1342 68.8481 10.4532 68.9749 10.3994 68.8289C10.5762 68.9288 10.7683 68.998 10.9566 69.0864C11.5408 69.1863 12.0942 69.2285 12.6437 69.2439C12.7821 69.2593 12.9166 69.2439 13.0549 69.2439C13.1817 69.2439 13.3508 69.2093 13.4892 69.29C13.7467 69.39 14.008 69.486 14.277 69.5744C15.3492 69.9318 16.5367 70.197 17.9779 70.2354L17.7857 70.27C18.5505 70.3046 19.4421 70.3277 20.0031 70.3968C19.9147 70.3968 19.957 70.4199 19.7726 70.4237C20.9639 70.5851 22.2359 70.5928 23.5157 70.5659C24.7993 70.5352 26.0944 70.4698 27.3587 70.4276L27.0743 70.5352C28.2887 70.3853 30.5446 70.3469 32.1164 69.9434L32.0319 70.0087C32.2932 69.9318 32.5545 69.8511 32.812 69.7627L32.8543 69.8473C33.1118 69.7896 33.3615 69.7051 33.6113 69.6321L33.9803 69.5052L34.1417 69.4476C34.1916 69.4361 34.2262 69.4476 34.2993 69.4476L34.6874 69.4591L35.0755 69.4284L35.4599 69.3976C35.5867 69.3823 35.7135 69.3477 35.8365 69.3246C36.8395 69.1248 37.7772 68.6905 38.615 68.0948V68.0833Z" fill="#1B1B1B"/>
    <path d="M39.0222 48.9333C39.0222 48.9333 39.0222 48.9487 39.0261 48.9564C39.053 49.0141 39.0414 48.9833 39.0222 48.9333Z" fill="#1B1B1B"/>
    <path d="M45.1904 28.0351C45.1943 27.9967 45.1981 27.9659 45.1943 27.9429C45.2135 27.9429 45.1943 28.0044 45.1904 28.0351Z" fill="#1B1B1B"/>
    <path d="M19.242 38.2729L19.2305 38.2959L19.2843 38.2537L19.242 38.2729Z" fill="#F25454"/>
    <path d="M19.3997 38.2192C19.3997 38.2192 19.4189 38.1961 19.4266 38.1846L19.2652 38.2922C19.2075 38.3844 19.4381 38.1577 19.3997 38.2192Z" fill="#F25454"/>
    <path d="M19.3958 38.2421C19.3766 38.2844 19.4419 38.2267 19.4688 38.2075C19.4189 38.2536 19.4611 38.1691 19.3958 38.2421Z" fill="#F25454"/>
    <path d="M20.5411 39.1799C20.5411 39.1799 20.5373 39.1799 20.5334 39.1799C20.5334 39.1838 20.5334 39.1799 20.5411 39.1799Z" fill="#F25454"/>
    <path d="M21.029 39.1875L21.0752 39.1337C20.9407 39.1875 20.9599 39.0376 20.8638 39.0338L20.883 39.0184C20.7523 38.8762 20.541 38.857 20.3604 38.7724C20.368 38.7686 20.3834 38.7532 20.3911 38.7494C20.368 38.7609 20.3296 38.7916 20.3258 38.7801C20.3334 38.7647 20.3488 38.7571 20.3565 38.7532C20.4026 38.6379 20.2182 38.734 20.2566 38.6495C20.2412 38.6495 20.2028 38.684 20.1836 38.7186C20.0529 38.6418 19.9146 38.5572 19.7416 38.5226C19.7455 38.5073 19.7685 38.4804 19.7954 38.4535C19.5725 38.5073 19.5187 38.3612 19.4419 38.2459C19.4034 38.2805 19.415 38.2959 19.3727 38.3228C19.3612 38.3997 19.5149 38.2844 19.4803 38.3804L19.4457 38.4112C19.4457 38.4535 19.5303 38.3266 19.511 38.392C19.4918 38.4304 19.4688 38.4342 19.4688 38.4419C19.5264 38.4688 19.5456 38.5419 19.6648 38.4919C19.6033 38.5803 19.7109 38.538 19.6609 38.6264C19.6993 38.6072 19.7032 38.6264 19.757 38.5764C19.88 38.7571 20.1067 38.8224 20.2681 38.9684C20.4756 38.88 20.4142 39.1414 20.5487 39.1644C20.5448 39.1721 20.541 39.1759 20.5371 39.1798C20.5986 39.1644 20.6563 39.1836 20.6793 39.2336L20.7639 39.1913C20.8715 39.5065 21.1751 39.5872 21.3634 39.8139C21.594 40.0445 21.7746 40.3404 22.1973 40.2635C22.1896 40.2789 22.1858 40.2904 22.1743 40.2943C22.278 40.302 22.3165 40.4057 22.4625 40.4134V40.4326C22.6162 40.4057 22.7392 40.4403 22.8775 40.4403C23.0082 40.4442 23.1542 40.3596 23.1312 40.1944C23.1927 40.0752 23.1773 39.9177 23.1504 39.7678C23.1004 39.6294 23.0505 39.4911 22.9736 39.3835L23.0121 39.3681C22.9198 39.2912 22.9044 39.1836 22.8737 39.076C22.8314 38.9761 22.7892 38.8608 22.6931 38.7993C22.6393 38.6917 22.5086 38.6533 22.3895 38.6302C22.2627 38.6149 22.1474 38.5957 22.082 38.488C22.0436 38.2536 21.7131 38.5534 21.6747 38.3266C21.5363 37.9385 21.202 38.0576 20.9214 38.1883C20.7062 38.0307 20.4372 38.2767 20.2335 38.0307C20.1144 38.1652 20.0183 37.8347 19.8915 37.8693V37.9193C19.8569 37.7656 19.7877 38.1268 19.7685 37.9001V37.8885C19.7532 37.7732 19.7147 38.1537 19.7032 38.0192V38.0768C19.6724 38.0922 19.6955 38.0115 19.6763 37.9885C19.6686 37.9961 19.6724 38.0922 19.6571 38.0576C19.6571 37.827 19.5879 38.1076 19.5879 37.8501C19.6033 37.8501 19.561 37.7502 19.5994 37.6964C19.5917 37.6695 19.5341 37.6848 19.5418 37.7925C19.5418 37.9077 19.5264 38.0115 19.5572 38.0999V38.0154C19.5725 38.0999 19.5687 38.0576 19.5725 38.123C19.6071 38.1345 19.6148 38.2575 19.6379 38.3074C19.6379 38.3074 19.6379 38.3036 19.6379 38.2997C19.6571 38.1998 19.6801 38.2575 19.6917 38.2728V38.319C19.7032 38.4189 19.7416 38.1268 19.7263 38.2959C19.7993 38.2536 19.8838 38.2613 19.9645 38.2651C19.9799 38.1998 20.026 38.2728 20.0183 38.1499C20.0298 38.2921 20.0875 38.3343 20.1106 38.3305C20.1106 38.342 20.1067 38.3574 20.1029 38.3535C20.1298 38.5419 20.1682 38.1883 20.1874 38.415C20.2105 38.2575 20.2566 38.4727 20.2989 38.2882C20.2989 38.3228 20.2989 38.3574 20.295 38.3843C20.368 38.3958 20.4372 38.465 20.4987 38.4765C20.5717 38.3459 20.6101 38.5611 20.687 38.3766C20.7178 38.4227 20.76 38.5111 20.8254 38.4458L20.8177 38.4688C20.8753 38.4688 20.9483 38.4765 21.0175 38.3689C20.9945 38.5534 21.0252 38.5226 21.0367 38.5841C21.0944 38.5073 21.1635 38.5572 21.2404 38.4957C21.225 38.5803 21.2981 38.4765 21.2635 38.5957C21.4902 38.4112 21.6785 38.5688 21.7438 38.8032L21.7362 38.8109C21.7823 38.7532 21.8745 38.6379 21.9322 38.5688C21.9322 38.5803 21.9206 38.5957 21.9168 38.5957C21.9591 38.588 21.9283 38.7109 21.9667 38.7033C21.9667 38.7033 21.9591 38.7148 21.9437 38.7378C21.9975 38.7033 21.9475 38.8531 22.0244 38.7878L22.009 38.8185L22.0513 38.7916C22.0282 38.8262 21.9975 38.88 21.9936 38.8608C22.1896 39.0107 22.5201 39.0376 22.6662 39.2797L22.6277 39.2912L22.7084 39.2989C22.7084 39.2989 22.6815 39.3143 22.6739 39.3143C22.6431 39.4065 22.7776 39.4065 22.793 39.4757C22.7738 39.4834 22.7354 39.4911 22.7161 39.5103C22.8468 39.5103 22.6047 39.6179 22.8314 39.5603C22.8237 39.5641 22.7738 39.5833 22.7546 39.5833C22.8583 39.664 22.9006 39.8062 22.8583 39.8523C22.9736 39.9253 22.9775 39.9907 22.9621 40.0368C22.9429 40.0829 22.916 40.1137 22.9237 40.2251L22.8929 40.179C22.8814 40.2904 22.7738 40.2712 22.6969 40.2366C22.6124 40.1944 22.5509 40.1367 22.4817 40.1213C22.4279 40.0791 22.3587 40.0983 22.2934 40.0675L22.3165 40.0214C22.1089 40.1329 22.1858 39.7409 21.9629 39.86L22.009 39.8062C21.9322 39.8869 21.9667 39.7332 21.8707 39.8946L21.8822 39.8331C21.6708 39.9907 21.813 39.6486 21.6324 39.7217L21.6631 39.6909C21.6209 39.7024 21.5786 39.7063 21.5824 39.6602C21.5901 39.6602 21.594 39.6448 21.6093 39.641C21.6401 39.445 21.4441 39.5449 21.3749 39.4834L21.4326 39.4219C21.3365 39.4719 21.325 39.3489 21.2519 39.3489L21.2788 39.322L21.2212 39.345L21.2673 39.2836C21.2097 39.2336 21.1097 39.2413 21.0444 39.199L21.029 39.1875Z" fill="#F25454"/>
    <path d="M19.6381 38.3227C19.6381 38.3227 19.6304 38.3151 19.6304 38.3074C19.6304 38.3227 19.6381 38.3189 19.6381 38.3227Z" fill="#F25454"/>
    <path d="M19.3075 37.6003L19.2883 37.585L19.3075 37.6503V37.6003Z" fill="#F25454"/>
    <path d="M19.2691 37.8003C19.2691 37.8003 19.2883 37.8272 19.296 37.8349L19.2653 37.6312C19.1769 37.5582 19.3229 37.8502 19.2653 37.8003H19.2691Z" fill="#F25454"/>
    <path d="M19.2382 37.7964C19.1882 37.7772 19.2228 37.8579 19.2305 37.8886C19.2036 37.8233 19.292 37.8771 19.2382 37.7964Z" fill="#F25454"/>
    <path d="M16.7517 39.1529C16.7517 39.1529 16.7556 39.1491 16.7594 39.1453C16.7556 39.1453 16.7517 39.1453 16.7517 39.1529Z" fill="#F25454"/>
    <path d="M16.1447 39.6717L16.1524 39.7448C16.2639 39.591 16.4522 39.6679 16.5752 39.5641V39.591C16.9441 39.4873 17.2169 39.2336 17.5244 39.0223C17.5244 39.03 17.5282 39.053 17.5244 39.0607C17.5282 39.03 17.5244 38.98 17.5474 38.9762C17.559 38.9877 17.5551 39.0069 17.5551 39.0184C17.6781 39.0876 17.7281 38.8493 17.8126 38.907C17.828 38.8839 17.8126 38.8378 17.7857 38.8109C18.0317 38.6533 18.293 38.4842 18.5044 38.2575C18.5236 38.2652 18.5428 38.2921 18.5582 38.3267C18.685 38.0385 18.9463 37.9693 19.1846 37.8655C19.1654 37.8194 19.1346 37.8348 19.1308 37.7771C19.027 37.7656 19.0655 37.9616 18.954 37.9193L18.9386 37.8732C18.8771 37.8732 18.9924 37.9846 18.9117 37.9577C18.8733 37.9347 18.8848 37.9001 18.8733 37.9039C18.7849 37.9808 18.6581 38.0039 18.6197 38.1576C18.5428 38.0807 18.5082 38.2152 18.4237 38.1499C18.4198 38.1999 18.3852 38.2075 18.4121 38.2729C18.0317 38.4228 17.7165 38.7071 17.3399 38.8801C17.2515 39.1491 16.9402 39.0223 16.7596 39.1721C16.7558 39.1645 16.7519 39.1606 16.7519 39.1529C16.702 39.2259 16.6097 39.2913 16.5175 39.2951L16.4752 39.3989C16.2101 39.3989 15.8949 39.4604 15.8027 39.4373C15.7335 39.4335 15.6605 39.3874 15.6567 39.3105C15.6528 39.2759 15.6567 39.2375 15.672 39.2067C15.6874 39.1721 15.6951 39.1529 15.7297 39.0876C15.8488 38.8378 16.0563 38.6264 16.2024 38.4074C16.2869 38.3075 16.3715 38.2114 16.4407 38.0923C16.5175 37.9846 16.5944 37.877 16.6674 37.731C16.6789 37.7464 16.6866 37.7541 16.6789 37.7694C16.8019 37.6657 16.9479 37.6349 17.0786 37.5619L17.0863 37.5811C17.2285 37.4351 17.4398 37.4043 17.6358 37.4082C17.8357 37.4082 18.0278 37.4351 18.2354 37.3967C18.4659 37.4543 18.7004 37.5581 18.9348 37.6618C19.0501 37.7156 19.1692 37.7771 19.2807 37.8386L19.4382 37.9308C19.4613 37.9501 19.5036 37.9577 19.5074 37.9846V38.073L19.4651 38.0807C19.4767 38.1653 19.4651 38.2652 19.4459 38.3689C19.4229 38.4689 19.419 38.5726 19.3998 38.6764C19.3844 38.7802 19.3652 38.8839 19.3575 38.9877C19.3575 39.0914 19.3691 39.1952 19.396 39.299C19.346 39.7448 19.7572 40.1252 19.738 40.5633C19.6035 40.8746 20.1184 41.0898 19.9878 41.3857C19.8494 41.966 20.1991 42.3811 20.5566 42.7846C20.6219 43.265 21.0638 43.584 21.0369 44.0912C21.256 44.2296 21.06 44.5793 21.1983 44.7791L21.2406 44.7484C21.1407 44.8906 21.5135 44.8329 21.3328 44.9751H21.3213C21.2368 45.0635 21.6095 44.9521 21.4981 45.0328L21.5519 45.0136C21.5903 45.0558 21.4981 45.0482 21.4943 45.0943C21.5058 45.1058 21.5903 45.0558 21.575 45.0981C21.3713 45.2057 21.6787 45.198 21.4481 45.3172C21.4328 45.2903 21.379 45.4056 21.3021 45.3671C21.2867 45.3979 21.3405 45.4747 21.4366 45.4171C21.5442 45.371 21.6518 45.3556 21.7056 45.2672L21.6249 45.2941C21.6941 45.2403 21.6557 45.2634 21.7095 45.2288C21.6864 45.1596 21.794 45.0943 21.8171 45.0251C21.8171 45.0251 21.8132 45.0251 21.8094 45.0289C21.7018 45.0405 21.7364 44.9713 21.7364 44.9406L21.7748 44.9098C21.8555 44.8522 21.5634 44.9213 21.7287 44.8675C21.6249 44.7522 21.5557 44.5985 21.4866 44.4486C21.4174 44.4563 21.4405 44.3295 21.3405 44.4141C21.452 44.318 21.4366 44.1912 21.4097 44.1527C21.4212 44.1489 21.4366 44.145 21.4366 44.1527C21.5673 43.999 21.2368 44.1258 21.4097 43.9606C21.2598 44.0144 21.3982 43.803 21.206 43.8338C21.2329 43.8107 21.2637 43.7953 21.2906 43.7876C21.2368 43.6493 21.2214 43.4764 21.183 43.3572C21.0139 43.3111 21.1445 43.092 20.9293 43.0805C20.937 42.996 20.9678 42.8499 20.8563 42.7769H20.8832C20.8294 42.6693 20.7641 42.531 20.6219 42.4964C20.7794 42.4003 20.7295 42.3619 20.7679 42.2927C20.6603 42.2466 20.6296 42.0852 20.5143 41.9968C20.5873 41.9507 20.4451 41.9122 20.5604 41.8661C20.2261 41.6202 20.1722 41.1782 20.253 40.7824H20.2645C20.1876 40.7593 20.0262 40.744 19.9301 40.7209C19.9378 40.7132 19.9609 40.7094 19.9609 40.7209C19.9224 40.6632 20.0262 40.571 19.9878 40.5095C20.0006 40.507 20.0147 40.507 20.0301 40.5095C19.9609 40.4634 20.0954 40.3596 19.9878 40.3097L20.0185 40.2982L19.9647 40.2636C20.0032 40.2559 20.0646 40.2444 20.057 40.2713C19.9724 39.7179 19.6573 39.1645 19.7034 38.5842L19.7418 38.6072L19.6727 38.4958C19.6919 38.4958 19.7034 38.5035 19.7111 38.5073C19.7418 38.4381 19.7457 38.369 19.7341 38.2998C19.7303 38.2729 19.7265 38.2152 19.7226 38.1614C19.7226 38.1076 19.7226 38.0577 19.7341 38.0077C19.7534 38.0039 19.7918 38.0269 19.8187 37.9885C19.761 37.927 19.8417 37.8386 19.7918 37.8002C19.7687 37.7541 19.7303 37.7156 19.6035 37.7656C19.6035 37.7541 19.6458 37.7195 19.6727 37.7156C19.4267 37.585 19.3114 37.5389 19.1654 37.462L18.7426 37.2353C18.4313 37.3313 18.1931 37.0815 17.8972 37.2122V37.1699C17.5551 37.2814 17.1862 37.1776 16.848 37.3505C16.7097 37.412 16.6405 37.4966 16.5214 37.5811L16.4868 37.5427C16.4483 37.7041 16.3215 37.7425 16.1909 37.804C16.0756 37.8732 15.9526 37.9577 15.9526 38.123L15.9103 38.0654C15.968 38.1614 15.7835 38.1691 15.9449 38.269H15.8757C15.9949 38.5573 15.599 38.4766 15.6451 38.7494L15.6106 38.7187C15.6144 38.784 15.6106 38.8532 15.5568 38.8762C15.5568 38.8685 15.5414 38.8647 15.5337 38.8493C15.3031 38.9416 15.3915 39.2452 15.4107 39.4104L15.3262 39.4181C15.3877 39.4527 15.3915 39.5219 15.4338 39.5834C15.4722 39.6487 15.5414 39.6986 15.6144 39.6986L15.5875 39.7294C15.6182 39.7217 15.649 39.714 15.6797 39.6986L15.649 39.7717C15.7412 39.7947 15.8411 39.7717 15.9295 39.7524L16.1563 39.6717H16.1447Z" fill="#F25454"/>
    <path d="M21.8207 45.0059C21.8207 45.0059 21.8207 45.0212 21.813 45.0289C21.8284 45.0212 21.8168 45.0135 21.8207 45.0059Z" fill="#F25454"/>
    <path d="M19.1229 37.854H19.0999L19.1613 37.8771L19.1229 37.854Z" fill="#F25454"/>
    <path d="M19.2497 37.9386C19.2497 37.9386 19.2805 37.9463 19.292 37.9463L19.119 37.8694C19.0114 37.854 19.3227 37.9463 19.2497 37.9347V37.9386Z" fill="#F25454"/>
    <path d="M19.2306 37.9424C19.1844 37.9424 19.269 37.9693 19.2959 37.9808C19.2306 37.9578 19.3228 37.9654 19.2306 37.9424Z" fill="#F25454"/>
    <path d="M18.9616 38.8876C18.9616 38.8876 18.9616 38.8876 18.9578 38.8838C18.9578 38.8838 18.9578 38.8838 18.9616 38.8876Z" fill="#F25454"/>
    <path d="M19.1422 39.2491L19.2076 39.2798C19.1115 39.1837 19.2498 39.1799 19.2191 39.1107L19.2421 39.1223C19.319 39.007 19.2537 38.8494 19.2498 38.7072C19.2575 38.7072 19.2729 38.7187 19.2844 38.7226C19.2652 38.7072 19.2229 38.688 19.2306 38.6803C19.246 38.6803 19.2614 38.6918 19.2652 38.6995C19.3882 38.7149 19.2229 38.5996 19.3152 38.6111C19.3075 38.5996 19.2614 38.5804 19.2229 38.5727C19.2229 38.4651 19.2345 38.3537 19.1768 38.2307C19.1922 38.2307 19.2229 38.2384 19.2614 38.2537C19.1038 38.1154 19.2037 38.0501 19.2614 37.9732C19.2152 37.9578 19.2076 37.9693 19.1614 37.9463C19.0923 37.9578 19.2652 38.027 19.1691 38.0308L19.123 38.0155C19.0884 38.0232 19.2383 38.0539 19.173 38.0539C19.1307 38.0539 19.1153 38.0347 19.1115 38.0385C19.1192 38.0808 19.0654 38.1077 19.1653 38.1769C19.0615 38.1538 19.1499 38.2153 19.05 38.2038C19.0884 38.2268 19.0731 38.2307 19.1384 38.2576C19.0423 38.3729 19.1076 38.5458 19.0423 38.6765C19.2076 38.811 18.9501 38.7994 18.9847 38.8994C18.977 38.8994 18.9693 38.8955 18.9654 38.8917C19.0039 38.934 19.0116 38.9801 18.977 38.9993L19.0462 39.0569C18.8194 39.1684 18.8425 39.3836 18.6926 39.5219C18.5542 39.6987 18.3313 39.7717 18.4505 40.0907C18.4351 40.0792 18.4236 40.0753 18.4197 40.0676C18.4197 40.1407 18.3313 40.1484 18.339 40.2214L18.3237 40.2098C18.3775 40.4212 18.1315 40.4327 18.193 40.6556C18.0777 40.7825 17.9586 40.9285 17.8817 41.1053L17.851 41.0784C17.8125 41.2436 17.5589 41.186 17.5051 41.332C17.3437 41.3628 17.4244 41.7048 17.2322 41.7086C17.0401 41.6087 17.1938 42.0161 17.0017 41.9046C16.6827 41.7547 16.6558 42.0007 16.5866 42.2543C16.3906 42.239 16.3599 42.5656 16.1178 42.4311C16.0985 42.5925 15.9025 42.3274 15.8411 42.3927L15.8603 42.4388C15.7834 42.3043 15.8641 42.6617 15.7757 42.4542V42.4426C15.7258 42.3389 15.8218 42.7117 15.7719 42.5848L15.7873 42.6386C15.7719 42.6617 15.768 42.5772 15.745 42.5618C15.745 42.5695 15.7719 42.6617 15.7527 42.6348C15.6873 42.4157 15.7181 42.6963 15.6489 42.4465C15.6566 42.4465 15.6105 42.3543 15.6143 42.2966C15.6028 42.2736 15.5874 42.2889 15.6143 42.3965C15.6374 42.5118 15.6489 42.6117 15.6873 42.6963L15.672 42.6117C15.6989 42.6924 15.6873 42.6502 15.7065 42.7117C15.7411 42.7117 15.7757 42.8308 15.8103 42.8769C15.8103 42.8769 15.8103 42.8731 15.8103 42.8692C15.7949 42.7655 15.8334 42.8193 15.8487 42.8308L15.868 42.8731C15.9064 42.9653 15.8411 42.6809 15.8833 42.8423C15.9256 42.7847 15.9871 42.7655 16.0486 42.7386C16.0332 42.6732 16.0947 42.727 16.037 42.6156C16.1024 42.7424 16.16 42.7578 16.1754 42.7463C16.1792 42.7578 16.1831 42.7732 16.1792 42.7693C16.283 42.9269 16.1523 42.5964 16.2676 42.7924C16.21 42.6463 16.3406 42.8154 16.283 42.6348C16.3022 42.6655 16.3137 42.6924 16.3253 42.7193C16.3791 42.7001 16.4598 42.7232 16.5097 42.7078C16.4867 42.5656 16.6289 42.7193 16.5751 42.531C16.6173 42.5541 16.7019 42.6002 16.6981 42.5118L16.7057 42.5349C16.7403 42.5041 16.7864 42.4657 16.7557 42.3466C16.8595 42.5003 16.8595 42.458 16.9056 42.4965C16.8902 42.4081 16.9555 42.3965 16.9517 42.3043C17.0017 42.3735 16.9632 42.2543 17.0324 42.3581C17.017 42.0929 17.1823 42.066 17.409 42.1275V42.1352C17.386 42.0699 17.3129 41.9392 17.2745 41.8585C17.2822 41.8662 17.2937 41.8816 17.2899 41.8854C17.2976 41.8547 17.3898 41.9354 17.3936 41.9008C17.3936 41.9008 17.4013 41.9123 17.4167 41.9354C17.4013 41.8777 17.5166 41.9815 17.4782 41.8893L17.5012 41.9123L17.4859 41.8662C17.5128 41.8969 17.5474 41.9469 17.532 41.9431C17.6281 41.8893 17.6896 41.7816 17.7434 41.6779C17.7933 41.5664 17.8394 41.4588 17.9317 41.3935L17.9547 41.4281L17.9355 41.3512C17.9355 41.3512 17.9547 41.3743 17.9624 41.382C18.0508 41.3935 18.0085 41.2744 18.0546 41.2436C18.07 41.259 18.0931 41.2897 18.1123 41.3013C18.0546 41.1975 18.2622 41.3512 18.1046 41.1821C18.1123 41.1898 18.1546 41.2206 18.1661 41.2359C18.1815 41.1014 18.2583 41.0207 18.3582 40.9631C18.2545 40.7632 18.4582 40.7978 18.3851 40.621L18.4197 40.6479C18.3698 40.4635 18.5773 40.4596 18.6196 40.3328C18.6618 40.2982 18.6388 40.2406 18.6618 40.1945L18.708 40.2214C18.585 40.0446 18.9578 40.156 18.8156 39.9677L18.8732 40.01C18.7848 39.9447 18.9347 39.9831 18.7695 39.8947L18.8271 39.9101C18.6426 39.7371 18.9808 39.8678 18.8732 39.7218L18.9116 39.7487C18.8886 39.7141 18.8771 39.6795 18.9193 39.6872C18.9232 39.691 18.9347 39.6987 18.9462 39.7064C19.1307 39.7295 18.9885 39.5796 19.0231 39.5219L19.0961 39.5642C19.0231 39.4912 19.1307 39.4797 19.1115 39.422L19.1461 39.4412L19.1076 39.399L19.1807 39.4297C19.2114 39.3836 19.173 39.3067 19.1807 39.2529L19.1422 39.2491Z" fill="#F25454"/>
    <path d="M15.8025 42.8882C15.8025 42.8882 15.7949 42.8806 15.791 42.8767C15.7949 42.8921 15.7987 42.8882 15.8025 42.8882Z" fill="#F25454"/>
  </g>
  <defs>
    <clipPath id="clip0_914_3677">
      <rect width="47.5" height="70.8273" fill="white"/>
    </clipPath>
  </defs>
</svg>