<svg xmlns="http://www.w3.org/2000/svg" width="24" height="24" viewBox="0 0 24 24" fill="none">
    <path d="M11.0189 5.49522C11.2436 5.81441 11.6096 6.0043 12 6.0043C12.3904 6.0043 12.7564 5.81441 12.9811 5.49522C13.9605 4.10454 15.5747 3.2 17.4 3.2C20.3823 3.2 22.8 5.61766 22.8 8.6C22.8 11.4391 21.1032 14.3007 18.7223 16.7051C16.5066 18.9428 13.8758 20.6025 12 21.3213C10.1242 20.6025 7.49343 18.9428 5.27769 16.7051C2.89685 14.3007 1.2 11.4391 1.2 8.6C1.2 5.61766 3.61766 3.2 6.6 3.2C8.42535 3.2 10.0395 4.10454 11.0189 5.49522Z" stroke="#F14040" stroke-width="2.4" stroke-linecap="round" stroke-linejoin="round"/>
</svg>