<svg xmlns="http://www.w3.org/2000/svg" width="83" height="24" viewBox="0 0 83 24" fill="none">
    <g clip-path="url(#clip0_606_978)">
        <path d="M80.7923 5.83092C80.1161 4.84847 79.0061 4.26154 77.8067 4.26154H75.829C75.0252 4.26154 74.2724 4.52949 73.66 4.98882C73.0475 4.52949 72.2947 4.26154 71.4909 4.26154L69.526 4.26154C69.4112 4.26154 69.2963 4.28706 69.1815 4.29982C68.9518 4.24878 68.7094 4.22327 68.467 4.22327C68.0459 4.22327 67.5866 4.2743 67.1273 4.37638C66.7955 4.2743 66.4383 4.22327 66.0683 4.22327H64.2437C63.4526 4.22327 62.7381 4.47845 62.1384 4.91226C61.1687 4.45293 60.0714 4.21051 58.8976 4.21051C57.1624 4.21051 55.6057 4.75915 54.3553 5.70333C53.577 5.14193 52.6839 4.72087 51.6887 4.50397V4.24878C51.6887 2.24559 50.0683 0.637939 48.0778 0.637939L46.2405 0.637939C45.2836 0.637939 44.4287 1.00796 43.778 1.6204C43.3442 1.42901 42.8593 1.31418 42.349 1.31418L40.4478 1.31418C38.585 1.31418 37.0539 2.73044 36.8625 4.555C36.148 4.3381 35.3952 4.22327 34.5914 4.22327C33.4686 4.22327 32.4223 4.45293 31.4781 4.87398C30.8912 4.45293 30.1767 4.21051 29.3984 4.21051H27.5611C27.1783 4.21051 26.8083 4.2743 26.4638 4.37638C26.0427 4.29982 25.6089 4.24878 25.1624 4.24878C23.4271 4.24878 21.896 4.77191 20.6584 5.69057C19.4335 4.77191 17.8896 4.22327 16.1799 4.22327C16.1033 4.22327 16.0268 4.22327 15.9502 4.22327C15.7716 2.38595 14.2533 0.956919 12.3649 0.956919L4.25007 0.956919C2.24688 0.94416 0.626465 2.56457 0.626465 4.56776L0.626465 6.37957C0.626465 8.22965 2.00446 9.74799 3.79074 9.96489L3.79074 15.9489C3.79074 17.9521 5.41115 19.5598 7.40159 19.5598H9.25167C10.3362 19.5598 11.2931 19.0749 11.9566 18.3221C13.1432 19.1387 14.5978 19.6108 16.1927 19.6108C16.9072 19.6108 17.5834 19.5088 18.2214 19.3429C18.3107 19.5343 18.4 19.7129 18.5276 19.8915C19.9439 21.9968 22.4574 23.311 25.0858 23.311C28.2246 23.311 30.8274 21.6778 32.1289 19.1898C32.8944 19.445 33.7365 19.5981 34.6169 19.5981C36.5946 19.5981 38.1129 18.9729 39.2102 18.1563C40.2692 19.0111 41.5834 19.5598 42.9997 19.5598C43.5994 19.5598 44.1863 19.445 44.7477 19.2663C45.207 19.4705 45.7046 19.5981 46.2405 19.5981H48.0778C48.7668 19.5981 49.4175 19.4067 49.9662 19.0622C50.5148 19.3939 51.1655 19.5981 51.8545 19.5981H53.6281C54.4064 19.5981 55.1336 19.3429 55.7206 18.9218C56.6775 19.3556 57.7493 19.5981 58.8976 19.5981C60.1863 19.5981 61.2708 19.3174 62.1767 18.8963C62.7636 19.3046 63.4654 19.547 64.2437 19.547H66.0683C66.6807 19.547 67.2421 19.3812 67.7525 19.1132C67.5866 20.0446 67.7652 21.0143 68.3139 21.8054C68.9901 22.7879 70.1002 23.362 71.2868 23.362H73.1879C74.6807 23.362 76.0204 22.4434 76.5563 21.0526L81.1751 9.16107C81.6089 8.05102 81.4686 6.78786 80.7923 5.8054V5.83092Z" fill="white" stroke="#FFCFC7" stroke-width="1.2504" stroke-miterlimit="10"/>
        <path d="M12.3896 6.36673H9.26362V15.9489H7.41354L7.41354 6.36673H4.24927V4.55493L12.3896 4.55493V6.36673Z" fill="#3B3634"/>
        <path d="M16.2045 7.82129C18.5905 7.82129 20.045 9.70965 20.045 11.9042C20.045 14.0988 18.5905 15.9872 16.2045 15.9872C13.8186 15.9872 12.364 14.0988 12.364 11.9042C12.364 9.70965 13.8313 7.82129 16.2045 7.82129ZM18.3608 11.9042C18.3608 10.5773 17.5825 9.5693 16.2045 9.5693C14.8265 9.5693 14.0482 10.5773 14.0482 11.9042C14.0482 13.2312 14.8265 14.2647 16.2045 14.2647C17.5825 14.2647 18.3608 13.2567 18.3608 11.9042Z" fill="#3B3634"/>
        <path d="M25.1742 7.85963C25.8504 7.85963 26.935 8.10206 27.5729 9.09727V7.80859L29.4102 7.80859V15.4769C29.3975 18.1946 27.3305 19.7001 25.0849 19.7001C23.6558 19.7001 22.2906 18.9984 21.5378 17.8756L23.0817 16.8293C23.6176 17.6587 24.5235 17.9139 25.0849 17.9139C26.0035 17.9139 27.5602 17.2887 27.5857 15.6938V14.6858C26.8712 15.681 25.8759 15.9872 25.1869 15.9872C22.7372 15.9872 21.3464 14.2392 21.3464 11.9043C21.3464 9.56936 22.7372 7.84687 25.1869 7.84687L25.1742 7.85963ZM27.4326 11.9043C27.4326 10.6156 26.4373 9.6204 25.3018 9.6204C23.86 9.6204 23.1838 10.6156 23.1838 11.9043C23.1838 13.193 23.86 14.2265 25.3018 14.2265C26.4373 14.2265 27.4326 13.2312 27.4326 11.9043Z" fill="#3B3634"/>
        <path d="M34.6045 7.82153C37.2712 7.82153 37.9729 9.90128 38.0367 10.0161C38.5088 11.1644 38.3685 12.619 38.3685 12.619H32.4482C32.6779 13.6142 33.3669 14.3415 34.6173 14.3415C36.0718 14.3415 36.3653 13.4738 36.3653 13.4738L37.9729 14.1756C37.9729 14.1756 37.2329 15.9874 34.6045 15.9874C32.1037 15.9874 30.7002 14.1246 30.7002 11.9172C30.7002 9.70989 32.1037 7.83429 34.6045 7.83429V7.82153ZM34.6173 9.48022C33.4817 9.48022 32.831 10.0416 32.4482 11.0241H36.646C36.2377 9.97783 35.7528 9.48022 34.63 9.48022H34.6173Z" fill="#3B3634"/>
        <path d="M42.9992 15.9362C41.6722 15.9362 40.4601 14.7113 40.4601 13.3206V9.32696H39.0693V7.55344H40.4601V4.92505H42.3612V7.55344H44.492V9.32696H42.3612V13.3206C42.3612 13.8054 42.5909 14.0351 42.9992 14.0351C43.2161 14.0351 43.2926 13.9841 43.5095 13.7799L44.8237 15.1579C44.3389 15.6172 43.7264 15.9362 42.9992 15.9362Z" fill="#3B3634"/>
        <path d="M50.093 9.79902C48.9447 9.79902 48.0771 10.7815 48.0771 11.866V15.9872H46.2397V4.24878H48.0771V9.02071C48.613 8.28068 49.5954 7.9617 50.144 7.9617C52.3897 7.9617 53.6273 9.60763 53.6273 11.496V15.9745H51.8538V11.7384C51.8538 10.6666 51.3689 9.79902 50.093 9.79902Z" fill="#3B3634"/>
        <path d="M58.8977 7.82129C61.5644 7.82129 62.2661 9.90103 62.3299 10.0159C62.802 11.1642 62.6617 12.6187 62.6617 12.6187H56.7414C56.9711 13.614 57.6601 14.3412 58.9105 14.3412C60.365 14.3412 60.6585 13.4736 60.6585 13.4736L62.2661 14.1754C62.2661 14.1754 61.5261 15.9872 58.8977 15.9872C56.3969 15.9872 54.9934 14.1243 54.9934 11.917C54.9934 9.70965 56.3969 7.83405 58.8977 7.83405V7.82129ZM58.9105 9.47998C57.7749 9.47998 57.1242 10.0414 56.7414 11.0238H60.9392C60.5309 9.97759 60.046 9.47998 58.9232 9.47998H58.9105Z" fill="#3B3634"/>
        <path d="M68.4657 7.83423V9.58224C67.0112 9.58224 66.067 10.8709 66.067 11.9172V15.9235H64.2424V7.83423H66.067V9.28877C66.6029 8.26804 67.764 7.83423 68.4657 7.83423Z" fill="#3B3634"/>
        <path d="M73.1878 19.7639H71.2866L72.6646 16.1403L69.5259 7.87231H71.4908L73.6598 13.7671L75.8289 7.87231L77.8066 7.87231L73.1878 19.7639Z" fill="#3B3634"/>
    </g>
    <defs>
        <clipPath id="clip0_606_978">
            <rect width="82.0542" height="24" fill="white"/>
        </clipPath>
    </defs>
</svg>