<svg xmlns="http://www.w3.org/2000/svg" width="48" height="48" viewBox="0 0 48 48" fill="none">
    <rect x="1.5" y="18.6428" width="27.8571" height="27.8571" rx="2.78571" stroke="white" stroke-width="3"/>
    <mask id="path-2-inside-1_606_1150" fill="white">
        <path d="M28.7143 15.4286C29.8978 15.4286 30.8724 14.4647 30.7086 13.2926C30.528 12.001 30.184 10.7345 29.6827 9.52431C28.9074 7.65243 27.7709 5.9516 26.3382 4.51892C24.9055 3.08625 23.2047 1.94979 21.3328 1.17443C19.4609 0.399072 17.4547 -8.8564e-08 15.4286 0C13.4025 8.85641e-08 11.3962 0.399072 9.52431 1.17443C7.65243 1.94979 5.9516 3.08625 4.51892 4.51892C3.08625 5.9516 1.94979 7.65243 1.17443 9.52431C0.673135 10.7345 0.32913 12.001 0.148572 13.2926C-0.0152727 14.4647 0.95939 15.4286 2.14286 15.4286L15.4286 15.4286H28.7143Z"/>
    </mask>
    <path d="M28.7143 15.4286C29.8978 15.4286 30.8724 14.4647 30.7086 13.2926C30.528 12.001 30.184 10.7345 29.6827 9.52431C28.9074 7.65243 27.7709 5.9516 26.3382 4.51892C24.9055 3.08625 23.2047 1.94979 21.3328 1.17443C19.4609 0.399072 17.4547 -8.8564e-08 15.4286 0C13.4025 8.85641e-08 11.3962 0.399072 9.52431 1.17443C7.65243 1.94979 5.9516 3.08625 4.51892 4.51892C3.08625 5.9516 1.94979 7.65243 1.17443 9.52431C0.673135 10.7345 0.32913 12.001 0.148572 13.2926C-0.0152727 14.4647 0.95939 15.4286 2.14286 15.4286L15.4286 15.4286H28.7143Z" stroke="white" stroke-width="6" mask="url(#path-2-inside-1_606_1150)"/>
    <mask id="path-3-inside-2_606_1150" fill="white">
        <path d="M32.5714 45.8571C32.5714 47.0406 33.5353 48.0152 34.7074 47.8514C35.999 47.6708 37.2655 47.3268 38.4757 46.8255C40.3476 46.0502 42.0484 44.9137 43.4811 43.481C44.9138 42.0484 46.0502 40.3475 46.8256 38.4757C47.6009 36.6038 48 34.5975 48 32.5714C48 30.5453 47.6009 28.539 46.8256 26.6671C46.0502 24.7953 44.9138 23.0944 43.4811 21.6617C42.0484 20.2291 40.3476 19.0926 38.4757 18.3173C37.2655 17.816 35.999 17.472 34.7074 17.2914C33.5353 17.1275 32.5714 18.1022 32.5714 19.2857L32.5714 32.5714L32.5714 45.8571Z"/>
    </mask>
    <path d="M32.5714 45.8571C32.5714 47.0406 33.5353 48.0152 34.7074 47.8514C35.999 47.6708 37.2655 47.3268 38.4757 46.8255C40.3476 46.0502 42.0484 44.9137 43.4811 43.481C44.9138 42.0484 46.0502 40.3475 46.8256 38.4757C47.6009 36.6038 48 34.5975 48 32.5714C48 30.5453 47.6009 28.539 46.8256 26.6671C46.0502 24.7953 44.9138 23.0944 43.4811 21.6617C42.0484 20.2291 40.3476 19.0926 38.4757 18.3173C37.2655 17.816 35.999 17.472 34.7074 17.2914C33.5353 17.1275 32.5714 18.1022 32.5714 19.2857L32.5714 32.5714L32.5714 45.8571Z" stroke="white" stroke-width="6" mask="url(#path-3-inside-2_606_1150)"/>
    <path d="M1.5 21.4285C1.5 19.89 2.74721 18.6428 4.28571 18.6428H26.5714C28.1099 18.6428 29.3571 19.89 29.3571 21.4285V25.0714H1.5V21.4285Z" stroke="white" stroke-width="3"/>
</svg>