<svg xmlns="http://www.w3.org/2000/svg" width="169" height="169" viewBox="0 0 169 169" fill="none">
  <g filter="url(#filter0_d_240_743)">
    <path d="M21.7876 70.294C17.0277 70.294 12.5254 68.2576 9.43398 64.7122C6.46519 61.3018 5.11574 56.775 5.74139 52.2973C6.37932 47.7214 7.60609 43.2314 9.37264 38.9623C12.1329 32.3132 16.1076 26.3511 21.211 21.2477C26.3021 16.1566 32.2642 12.1696 38.9256 9.40936C45.5869 6.64913 52.6163 5.25061 59.8175 5.25061C67.0186 5.25061 74.0603 6.64913 80.7094 9.40936C87.3708 12.1696 93.3329 16.1443 98.424 21.2477C103.515 26.3388 107.502 32.3009 110.262 38.9623C112.029 43.2314 113.256 47.7214 113.894 52.2973C114.519 56.775 113.17 61.2895 110.201 64.7122C107.122 68.2576 102.62 70.294 97.8474 70.294H21.7876Z" fill="white"/>
    <path d="M21.7874 59.8542H97.8472C101.233 59.8542 104.03 57.094 103.552 53.7449C103.036 50.0523 102.055 46.4211 100.62 42.9616C98.3992 37.6006 95.1483 32.7303 91.0509 28.6329C86.9535 24.5355 82.0832 21.2845 76.7222 19.0641C71.3612 16.8436 65.6199 15.7027 59.8173 15.7027C54.0147 15.7027 48.2734 16.8436 42.9124 19.0641C37.5514 21.2845 32.6811 24.5355 28.5837 28.6329C24.4863 32.7303 21.2353 37.6006 19.0149 42.9616C17.5796 46.4211 16.5981 50.0523 16.0829 53.7449C15.6167 57.094 18.4015 59.8542 21.7874 59.8542Z" fill="white"/>
    <path d="M114.261 163.148C105.539 163.148 98.4482 155.886 98.4482 146.955V70.8951C98.4482 61.9642 105.539 54.7017 114.261 54.7017C114.985 54.7017 115.721 54.7508 116.445 54.8489C121.021 55.4869 125.511 56.7136 129.78 58.4802C136.441 61.2404 142.403 65.2151 147.495 70.3185C152.586 75.4096 156.573 81.3717 159.333 88.0331C162.093 94.6945 163.492 101.724 163.492 108.925C163.492 116.126 162.093 123.168 159.333 129.817C156.573 136.478 152.586 142.44 147.495 147.532C142.403 152.623 136.441 156.61 129.78 159.37C125.499 161.136 121.021 162.363 116.445 163.001C115.721 163.099 114.985 163.148 114.261 163.148Z" fill="white"/>
    <path d="M149.691 92.0324C147.47 86.6714 144.219 81.8012 140.122 77.7037C136.024 73.6063 131.154 70.3554 125.793 68.1349C122.334 66.6996 118.702 65.7182 115.01 65.203C111.661 64.7368 108.9 67.5215 108.9 70.9074V146.967C108.9 150.353 111.661 153.15 115.01 152.672C118.702 152.156 122.334 151.175 125.793 149.74C131.154 147.519 136.024 144.268 140.122 140.171C144.219 136.074 147.47 131.203 149.691 125.842C151.911 120.481 153.052 114.74 153.052 108.937C153.052 103.135 151.911 97.3934 149.691 92.0324Z" fill="white"/>
    <path d="M27.9213 163.529C15.4083 163.529 5.22607 153.346 5.22607 140.833V77.0413C5.22607 75.5078 5.38555 73.9744 5.69225 72.4777C5.83946 71.7539 6.03574 71.0178 6.25656 70.294C6.91902 68.1717 7.8759 66.1721 9.11494 64.3442C9.92461 63.1542 10.857 62.0256 11.8752 60.9951C14.4759 58.3944 17.6901 56.4561 21.1864 55.3642C23.37 54.6895 25.6395 54.346 27.9336 54.346H91.7257C92.4986 54.346 93.2715 54.3828 94.0321 54.4687C95.5287 54.6159 97.0254 54.9226 98.4607 55.3765C101.344 56.272 103.993 57.7196 106.312 59.6702C107.367 60.5535 108.348 61.5472 109.219 62.6022C109.698 63.1788 110.14 63.7676 110.532 64.3687C111.109 65.2275 111.648 66.1721 112.164 67.2516C112.679 68.3189 113.072 69.3126 113.378 70.3063C113.599 71.0301 113.795 71.7662 113.943 72.5022C114.249 73.9866 114.409 75.5323 114.409 77.0658V140.858C114.409 153.371 104.227 163.553 91.7135 163.553H27.9213V163.529Z" fill="white"/>
    <path d="M103.429 73.3855C103.257 72.8212 103.024 72.2691 102.767 71.7416C102.509 71.2018 102.215 70.6743 101.883 70.1714C101.662 69.8401 101.429 69.5334 101.172 69.2267C100.693 68.6502 100.166 68.1226 99.5892 67.6319C98.3625 66.6014 96.9272 65.804 95.3569 65.3133C94.584 65.0803 93.7866 64.9085 92.9647 64.8226C92.5476 64.7858 92.1305 64.7613 91.7134 64.7613H27.9213C26.6454 64.7613 25.4309 64.9576 24.2778 65.3133C22.3517 65.9145 20.6343 66.9695 19.248 68.3557C18.696 68.9078 18.193 69.5212 17.7513 70.1714C17.0889 71.1528 16.5614 72.2323 16.2056 73.3855C16.0829 73.7658 15.9848 74.1584 15.8989 74.5632C15.7394 75.3606 15.6536 76.1825 15.6536 77.0413V140.833C15.6536 147.605 21.1495 153.101 27.9213 153.101H91.7134C98.4852 153.101 103.981 147.605 103.981 140.833V77.0413C103.981 76.1948 103.895 75.3729 103.736 74.5632C103.65 74.1584 103.552 73.7658 103.429 73.3855Z" fill="white"/>
  </g>
  <g filter="url(#filter1_d_240_743)">
    <path d="M91.7131 64.7612H27.921C21.1458 64.7612 15.6533 70.2537 15.6533 77.0289V140.821C15.6533 147.596 21.1458 153.089 27.921 153.089H91.7131C98.4884 153.089 103.981 147.596 103.981 140.821V77.0289C103.981 70.2537 98.4884 64.7612 91.7131 64.7612Z" fill="white"/>
    <path d="M97.847 59.8541C101.233 59.8541 104.03 57.0939 103.551 53.7448C103.036 50.0522 102.055 46.421 100.619 42.9615C98.399 37.6005 95.1481 32.7302 91.0506 28.6328C86.9532 24.5354 82.0829 21.2844 76.722 19.064C71.361 16.8435 65.6197 15.7026 59.817 15.7026C54.0144 15.7026 48.2731 16.8435 42.9121 19.064C37.5511 21.2844 32.6809 24.5354 28.5835 28.6328C24.486 32.7302 21.2351 37.6005 19.0146 42.9615C17.5793 46.421 16.5979 50.0522 16.0827 53.7448C15.6165 57.0939 18.4013 59.8541 21.7871 59.8541H97.847Z" fill="#F14040"/>
    <path d="M108.888 146.955C108.888 150.341 111.648 153.138 114.997 152.659C118.69 152.144 122.321 151.163 125.781 149.727C131.142 147.507 136.012 144.256 140.109 140.159C144.207 136.061 147.458 131.191 149.678 125.83C151.899 120.469 153.039 114.728 153.039 108.925C153.039 103.122 151.899 97.3811 149.678 92.0201C147.458 86.6591 144.207 81.7888 140.109 77.6914C136.012 73.594 131.142 70.3431 125.781 68.1226C122.321 66.6873 118.69 65.7059 114.997 65.1906C111.648 64.7244 108.888 67.5092 108.888 70.8951V146.955Z" fill="#F14040"/>
    <path d="M15.6533 77.0289C15.6533 70.2572 21.1493 64.7612 27.921 64.7612H91.7131C98.4849 64.7612 103.981 70.2572 103.981 77.0289V91.7502H15.6533V77.0289Z" fill="#F14040"/>
  </g>
  <defs>
    <filter id="filter0_d_240_743" x="1.74204" y="1.76658" width="165.234" height="165.271" filterUnits="userSpaceOnUse" color-interpolation-filters="sRGB">
      <feFlood flood-opacity="0" result="BackgroundImageFix"/>
      <feColorMatrix in="SourceAlpha" type="matrix" values="0 0 0 0 0 0 0 0 0 0 0 0 0 0 0 0 0 0 127 0" result="hardAlpha"/>
      <feOffset/>
      <feGaussianBlur stdDeviation="1.74202"/>
      <feColorMatrix type="matrix" values="0 0 0 0 0 0 0 0 0 0 0 0 0 0 0 0 0 0 0.5 0"/>
      <feBlend mode="normal" in2="BackgroundImageFix" result="effect1_dropShadow_240_743"/>
      <feBlend mode="normal" in="SourceGraphic" in2="effect1_dropShadow_240_743" result="shape"/>
    </filter>
    <filter id="filter1_d_240_743" x="12.1693" y="12.2186" width="144.354" height="144.354" filterUnits="userSpaceOnUse" color-interpolation-filters="sRGB">
      <feFlood flood-opacity="0" result="BackgroundImageFix"/>
      <feColorMatrix in="SourceAlpha" type="matrix" values="0 0 0 0 0 0 0 0 0 0 0 0 0 0 0 0 0 0 127 0" result="hardAlpha"/>
      <feOffset/>
      <feGaussianBlur stdDeviation="1.74202"/>
      <feColorMatrix type="matrix" values="0 0 0 0 0 0 0 0 0 0 0 0 0 0 0 0 0 0 0.5 0"/>
      <feBlend mode="normal" in2="BackgroundImageFix" result="effect1_dropShadow_240_743"/>
      <feBlend mode="normal" in="SourceGraphic" in2="effect1_dropShadow_240_743" result="shape"/>
    </filter>
  </defs>
</svg>