<svg xmlns="http://www.w3.org/2000/svg" width="218" height="64" viewBox="0 0 218 64" fill="none">
  <g clip-path="url(#clip0_240_663)">
    <path d="M214.075 15.4504C212.284 12.8471 209.342 11.2919 206.164 11.2919H200.924C198.794 11.2919 196.799 12.0019 195.176 13.219C193.554 12.0019 191.559 11.2919 189.429 11.2919H184.223C183.918 11.2919 183.614 11.3596 183.31 11.3934C182.701 11.2581 182.059 11.1905 181.416 11.1905C180.301 11.1905 179.084 11.3258 177.867 11.5962C176.988 11.3258 176.041 11.1905 175.061 11.1905H170.226C168.13 11.1905 166.237 11.8667 164.648 13.0162C162.078 11.7991 159.171 11.1567 156.06 11.1567C151.462 11.1567 147.338 12.6105 144.024 15.1123C141.962 13.6247 139.596 12.509 136.958 11.9343V11.2581C136.958 5.95022 132.665 1.69037 127.391 1.69037L122.522 1.69037C119.987 1.69037 117.722 2.67081 115.997 4.29361C114.848 3.78649 113.563 3.48221 112.211 3.48221L107.173 3.48221C102.237 3.48221 98.1803 7.23494 97.6732 12.0695C95.7799 11.4948 93.7852 11.1905 91.6553 11.1905C88.6802 11.1905 85.9079 11.7991 83.4061 12.9147C81.8509 11.7991 79.9576 11.1567 77.8953 11.1567L73.0269 11.1567C72.0127 11.1567 71.0322 11.3258 70.1194 11.5962C69.0037 11.3934 67.8542 11.2581 66.6709 11.2581C62.073 11.2581 58.016 12.6443 54.7366 15.0785C51.491 12.6443 47.4002 11.1905 42.8699 11.1905C42.667 11.1905 42.4642 11.1905 42.2613 11.1905C41.788 6.32211 37.7648 2.53558 32.7612 2.53558L11.259 2.53558C5.95113 2.50177 1.65747 6.79543 1.65747 12.1033L1.65747 16.9041C1.65747 21.8063 5.30877 25.8295 10.0419 26.4043L10.0419 42.2604C10.0419 47.5683 14.3356 51.8282 19.6097 51.8282H24.5119C27.3856 51.8282 29.9213 50.5434 31.6793 48.5487C34.8235 50.7125 38.6776 51.9634 42.9037 51.9634C44.7969 51.9634 46.5888 51.6929 48.2792 51.2534C48.5159 51.7605 48.7525 52.2339 49.0906 52.7072C52.8433 58.2856 59.5036 61.7678 66.4681 61.7678C74.7849 61.7678 81.6818 57.4403 85.1303 50.8477C87.1588 51.5239 89.3902 51.9296 91.7229 51.9296C96.9632 51.9296 100.986 50.273 103.894 48.1092C106.7 50.3744 110.182 51.8282 113.935 51.8282C115.524 51.8282 117.079 51.5239 118.567 51.0506C119.784 51.5915 121.102 51.9296 122.522 51.9296H127.391C129.216 51.9296 130.941 51.4225 132.394 50.5096C133.848 51.3886 135.572 51.9296 137.398 51.9296H142.097C144.16 51.9296 146.087 51.2534 147.642 50.1377C150.178 51.2872 153.017 51.9296 156.06 51.9296C159.475 51.9296 162.349 51.1858 164.749 50.0701C166.304 51.152 168.164 51.7943 170.226 51.7943H175.061C176.683 51.7943 178.171 51.3548 179.523 50.6449C179.084 53.1129 179.557 55.6823 181.011 57.7784C182.803 60.3817 185.744 61.903 188.888 61.903H193.926C197.881 61.903 201.431 59.4688 202.851 55.7837L215.09 24.2743C216.239 21.333 215.867 17.986 214.075 15.3828V15.4504Z" fill="white" stroke="#FFCFC7" stroke-width="3.31322" stroke-miterlimit="10"/>
    <path d="M32.8283 16.8703H24.5452L24.5452 42.2604H19.643L19.643 16.8703H11.2585V12.0695L32.8283 12.0695V16.8703Z" fill="#3B3634"/>
    <path d="M42.9366 20.7245C49.2587 20.7245 53.1129 25.7282 53.1129 31.5432C53.1129 37.3583 49.2587 42.3619 42.9366 42.3619C36.6144 42.3619 32.7603 37.3583 32.7603 31.5432C32.7603 25.7282 36.6482 20.7245 42.9366 20.7245ZM48.6502 31.5432C48.6502 28.0272 46.5879 25.3563 42.9366 25.3563C39.2853 25.3563 37.223 28.0272 37.223 31.5432C37.223 35.0593 39.2853 37.7978 42.9366 37.7978C46.5879 37.7978 48.6502 35.1269 48.6502 31.5432Z" fill="#3B3634"/>
    <path d="M66.7038 20.8259C68.4956 20.8259 71.3693 21.4683 73.0598 24.1053V20.6907H77.9282V41.0095C77.8943 48.2107 72.4174 52.2001 66.4671 52.2001C62.6806 52.2001 59.0631 50.3406 57.0684 47.3655L61.1592 44.5932C62.5792 46.7907 64.9796 47.4669 66.4671 47.4669C68.9013 47.4669 73.026 45.8103 73.0936 41.5842V38.9134C71.2003 41.5504 68.5632 42.3618 66.7376 42.3618C60.2464 42.3618 56.5613 37.7301 56.5613 31.5432C56.5613 25.3562 60.2464 20.7921 66.7376 20.7921L66.7038 20.8259ZM72.6879 31.5432C72.6879 28.1285 70.0508 25.4915 67.0419 25.4915C63.2215 25.4915 61.4297 28.1285 61.4297 31.5432C61.4297 34.9578 63.2215 37.6963 67.0419 37.6963C70.0508 37.6963 72.6879 35.0592 72.6879 31.5432Z" fill="#3B3634"/>
    <path d="M91.6884 20.7245C98.7543 20.7245 100.614 26.2353 100.783 26.5396C102.034 29.5823 101.662 33.4365 101.662 33.4365H85.9748C86.5833 36.0735 88.409 38.0006 91.7222 38.0006C95.5763 38.0006 96.3539 35.7017 96.3539 35.7017L100.614 37.5611C100.614 37.5611 98.6529 42.3619 91.6884 42.3619C85.0619 42.3619 81.343 37.4259 81.343 31.577C81.343 25.7282 85.0619 20.7584 91.6884 20.7584V20.7245ZM91.7222 25.1196C88.7132 25.1196 86.989 26.6072 85.9748 29.2104H97.0977C96.0158 26.4382 94.7311 25.1196 91.756 25.1196H91.7222Z" fill="#3B3634"/>
    <path d="M113.935 42.2265C110.419 42.2265 107.207 38.9809 107.207 35.2958V24.7138H103.522V20.0144H107.207V13.0499H112.244V20.0144H117.89V24.7138H112.244V35.2958C112.244 36.5805 112.853 37.1891 113.935 37.1891C114.509 37.1891 114.712 37.0539 115.287 36.5129L118.769 40.1642C117.485 41.3813 115.862 42.2265 113.935 42.2265Z" fill="#3B3634"/>
    <path d="M132.732 25.9648C129.69 25.9648 127.391 28.568 127.391 31.4417V42.3618H122.522V11.2581H127.391V23.9024C128.811 21.9416 131.414 21.0963 132.868 21.0963C138.818 21.0963 142.097 25.4576 142.097 30.4613V42.328H137.398V31.1036C137.398 28.2637 136.113 25.9648 132.732 25.9648Z" fill="#3B3634"/>
    <path d="M156.06 20.7245C163.126 20.7245 164.985 26.2353 165.154 26.5396C166.405 29.5823 166.033 33.4365 166.033 33.4365H150.346C150.955 36.0735 152.78 38.0006 156.094 38.0006C159.948 38.0006 160.725 35.7017 160.725 35.7017L164.985 37.5611C164.985 37.5611 163.024 42.3619 156.06 42.3619C149.433 42.3619 145.714 37.4259 145.714 31.577C145.714 25.7282 149.433 20.7584 156.06 20.7584V20.7245ZM156.094 25.1196C153.085 25.1196 151.36 26.6072 150.346 29.2104H161.469C160.387 26.4382 159.102 25.1196 156.127 25.1196H156.094Z" fill="#3B3634"/>
    <path d="M181.416 20.7584V25.3901C177.562 25.3901 175.06 28.8048 175.06 31.577V42.1929H170.225V20.7584H175.06V24.6125C176.48 21.9078 179.556 20.7584 181.416 20.7584Z" fill="#3B3634"/>
    <path d="M193.926 52.3692H188.888L192.54 42.7676L184.223 20.8598H189.429L195.177 36.4793L200.924 20.8598H206.164L193.926 52.3692Z" fill="#3B3634"/>
  </g>
  <defs>
    <clipPath id="clip0_240_663">
      <rect width="217.422" height="63.5935" fill="white"/>
    </clipPath>
  </defs>
</svg>